<?xml version="1.0" standalone="no"?>
<!-- Created using GSL Shell -->
<svg
   xmlns="http://www.w3.org/2000/svg"
   version="1.1"
   width="1500"
   height="1500"
   font-family="Helvetica">
<g id="plot1">
   <text x="750" y="810" id="text0" style="font-size:44;text-anchor:middle"> <tspan id="tspan0">Difference in cumulitive depth samples</tspan></text>
   <text x="183.009" y="1434.6" id="text1" style="font-size:33;text-anchor:middle"> <tspan id="tspan1">0</tspan></text>
   <text x="309.719" y="1434.6" id="text2" style="font-size:33;text-anchor:middle"> <tspan id="tspan2">200</tspan></text>
   <text x="436.429" y="1434.6" id="text3" style="font-size:33;text-anchor:middle"> <tspan id="tspan3">400</tspan></text>
   <text x="563.139" y="1434.6" id="text4" style="font-size:33;text-anchor:middle"> <tspan id="tspan4">600</tspan></text>
   <text x="689.849" y="1434.6" id="text5" style="font-size:33;text-anchor:middle"> <tspan id="tspan5">800</tspan></text>
   <text x="816.559" y="1434.6" id="text6" style="font-size:33;text-anchor:middle"> <tspan id="tspan6">1000</tspan></text>
   <text x="943.269" y="1434.6" id="text7" style="font-size:33;text-anchor:middle"> <tspan id="tspan7">1200</tspan></text>
   <text x="1069.98" y="1434.6" id="text8" style="font-size:33;text-anchor:middle"> <tspan id="tspan8">1400</tspan></text>
   <text x="1196.69" y="1434.6" id="text9" style="font-size:33;text-anchor:middle"> <tspan id="tspan9">1600</tspan></text>
   <text x="1323.4" y="1434.6" id="text10" style="font-size:33;text-anchor:middle"> <tspan id="tspan10">1800</tspan></text>
   <text x="158.351" y="1336.8" id="text11" style="font-size:33;text-anchor:end"> <tspan id="tspan11">-20</tspan></text>
   <text x="158.351" y="1247.8" id="text12" style="font-size:33;text-anchor:end"> <tspan id="tspan12">0</tspan></text>
   <text x="158.351" y="1157.8" id="text13" style="font-size:33;text-anchor:end"> <tspan id="tspan13">20</tspan></text>
   <text x="158.351" y="1068.8" id="text14" style="font-size:33;text-anchor:end"> <tspan id="tspan14">40</tspan></text>
   <text x="158.351" y="978.8" id="text15" style="font-size:33;text-anchor:end"> <tspan id="tspan15">60</tspan></text>
   <text x="158.351" y="889.8" id="text16" style="font-size:33;text-anchor:end"> <tspan id="tspan16">80</tspan></text>
   <path d="M 309.719,1384.07 309.719,842.839 M 436.429,1384.07 436.429,842.839 M 563.139,1384.07 563.139,842.839 M 689.849,1384.07 689.849,842.839 M 816.559,1384.07 816.559,842.839 M 943.269,1384.07 943.269,842.839 M 1069.98,1384.07 1069.98,842.839 M 1196.69,1384.07 1196.69,842.839 M 1323.4,1384.07 1323.4,842.839 M 183.643,1316.98 1448.21,1316.98 M 183.643,1227.52 1448.21,1227.52 M 183.643,1138.06 1448.21,1138.06 M 183.643,1048.6 1448.21,1048.6 M 183.643,959.137 1448.21,959.137 M 183.643,869.677 1448.21,869.677" id="path17" style="fill:none;stroke:#000000;stroke-width:0.225;stroke-linecap:butt;stroke-linejoin:miter;stroke-dasharray:7,3" />
   <path d="M 183.009,1384.07 183.009,1389.48 M 309.719,1384.07 309.719,1389.48 M 436.429,1384.07 436.429,1389.48 M 563.139,1384.07 563.139,1389.48 M 689.849,1384.07 689.849,1389.48 M 816.559,1384.07 816.559,1389.48 M 943.269,1384.07 943.269,1389.48 M 1069.98,1384.07 1069.98,1389.48 M 1196.69,1384.07 1196.69,1389.48 M 1323.4,1384.07 1323.4,1389.48" id="path18" style="fill:none;stroke:#000000;stroke-width:1.125;stroke-linecap:butt;stroke-linejoin:miter" />
   <path d="M 183.643,1316.98 170.997,1316.98 M 183.643,1227.52 170.997,1227.52 M 183.643,1138.06 170.997,1138.06 M 183.643,1048.6 170.997,1048.6 M 183.643,959.137 170.997,959.137 M 183.643,869.677 170.997,869.677" id="path19" style="fill:none;stroke:#000000;stroke-width:1.125;stroke-linecap:butt;stroke-linejoin:miter" />
   <path d="M 183.643,1384.07 183.643,842.839 1448.21,842.839 1448.21,1384.07 z" id="path20" style="fill:none;stroke:#000000;stroke-width:1.125;stroke-linecap:butt;stroke-linejoin:miter" />
   <text x="815.926" y="1485" id="text21" style="font-size:35;text-anchor:middle"> <tspan id="tspan21">Sample sliding window index</tspan></text>
   <g transform="matrix(6.12323e-017,-1,1,6.12323e-017,26.5,1113)"><text x="0" y="42" id="text22" style="font-size:35;text-anchor:middle"> <tspan id="tspan22">Sample sum difference</tspan></text></g>
   <path d="M 183.643,1088.85 184.276,1111.22 184.91,1124.64 185.543,1223.04 186.177,1209.63 186.81,1209.63 187.444,1191.73 188.077,1240.94 188.711,1240.94 189.345,1178.31 189.978,1151.48 190.612,1142.53 191.245,1164.9 191.879,1075.44 192.512,1075.44 193.146,1196.21 193.779,1285.67 194.413,1240.94 195.047,1142.53 195.68,1053.07 196.314,1062.02 196.947,1070.96 197.581,1133.58 198.214,1209.63 198.848,1227.52 199.481,1214.1 200.115,1178.31 200.748,1138.06 201.382,1173.84 202.016,1142.53 202.649,1214.1 203.283,1209.63 203.916,1245.41 204.55,1079.91 205.183,1102.27 205.817,1075.44 206.45,1187.26 207.084,1218.57 207.718,1267.77 208.351,1138.06 208.985,1111.22 209.618,1088.85 210.252,1231.99 210.885,1214.1 211.519,1115.69 212.152,1084.38 212.786,968.083 213.42,1035.18 214.053,959.137 214.687,1075.44 215.32,1106.75 215.954,1240.94 216.587,1357.23 217.221,1357.23 217.854,1267.77 218.488,1097.8 219.121,1093.33 219.755,1155.95 220.389,1182.79 221.022,1187.26 221.656,1115.69 222.289,1138.06 222.923,1106.75 223.556,1053.07 224.19,1057.54 224.823,1088.85 225.457,1209.63 226.091,1138.06 226.724,1138.06 227.358,1120.17 227.991,1187.26 228.625,1147 229.258,1182.79 229.892,1155.95 230.525,1218.57 231.159,1218.57 231.792,1187.26 232.426,1164.9 233.06,1129.11 233.693,1187.26 234.327,1151.48 234.96,1281.19 235.594,1196.21 236.227,1223.04 236.861,1048.6 237.494,1120.17 238.128,1129.11 238.762,1196.21 239.395,1191.73 240.029,1093.33 240.662,1093.33 241.296,1075.44 241.929,1066.49 242.563,1066.49 243.196,1093.33 243.83,1187.26 244.463,1173.84 245.097,1155.95 245.731,1169.37 246.364,1115.69 246.998,1106.75 247.631,1106.75 248.265,1169.37 248.898,1209.63 249.532,1187.26 250.165,1097.8 250.799,1053.07 251.433,1075.44 252.066,1147 252.7,1106.75 253.333,1075.44 253.967,999.394 254.6,1079.91 255.234,1106.75 255.867,1200.68 256.501,1182.79 257.134,1160.42 257.768,1133.58 258.402,1129.11 259.035,1124.64 259.669,1147 260.302,1173.84 260.936,1164.9 261.569,1249.88 262.203,1111.22 262.836,1079.91 263.47,999.394 264.104,1138.06 264.737,1182.79 265.371,1182.79 266.004,1178.31 266.638,1138.06 267.271,1142.53 267.905,1142.53 268.538,1178.31 269.172,1258.83 269.805,1276.72 270.439,1303.56 271.073,1155.95 271.706,1115.69 272.34,1053.07 272.973,1120.17 273.607,1227.52 274.24,1290.14 274.874,1357.23 275.507,1276.72 276.141,1249.88 276.775,1178.31 277.408,1017.29 278.042,1048.6 278.675,994.921 279.309,1142.53 279.942,1084.38 280.576,1106.75 281.209,1102.27 281.843,1138.06 282.476,1093.33 283.11,1093.33 283.744,1106.75 284.377,1178.31 285.011,1182.79 285.644,1129.11 286.278,1093.33 286.911,1106.75 287.545,1169.37 288.178,1209.63 288.812,1187.26 289.446,1196.21 290.079,1209.63 290.713,1312.5 291.346,1339.34 291.98,1321.45 292.613,1240.94 293.247,1240.94 293.88,1227.52 294.514,1218.57 295.147,1196.21 295.781,1218.57 296.415,1209.63 297.048,1187.26 297.682,1169.37 298.315,1151.48 298.949,1155.95 299.582,1164.9 300.216,1120.17 300.849,1115.69 301.483,1102.27 302.117,1205.15 302.75,1200.68 303.384,1254.36 304.017,1138.06 304.651,1151.48 305.284,1120.17 305.918,1178.31 306.551,1129.11 307.185,1124.64 307.818,1133.58 308.452,1223.04 309.086,1240.94 309.719,1205.15 310.353,985.975 310.986,927.826 311.62,977.029 312.253,1155.95 312.887,1200.68 313.52,1182.79 314.154,1173.84 314.788,1120.17 315.421,1039.65 316.055,918.88 316.688,954.664 317.322,1057.54 317.955,1160.42 318.589,1169.37 319.222,1160.42 319.856,1187.26 320.489,1191.73 321.123,1124.64 321.757,1106.75 322.39,1111.22 323.024,1142.53 323.657,1169.37 324.291,1075.44 324.924,1129.11 325.558,994.921 326.191,1075.44 326.825,1075.44 327.459,1196.21 328.092,1196.21 328.726,1196.21 329.359,1191.73 329.993,1205.15 330.626,1003.87 331.26,1021.76 331.893,1097.8 332.527,1223.04 333.16,1151.48 333.794,1142.53 334.428,1218.57 335.061,1272.25 335.695,1205.15 336.328,1173.84 336.962,1147 337.595,1147 338.229,1160.42 338.862,1155.95 339.496,1048.6 340.13,1012.81 340.763,1070.96 341.397,1138.06 342.03,1169.37 342.664,1147 343.297,1169.37 343.931,1200.68 344.564,1214.1 345.198,1312.5 345.831,1285.67 346.465,1249.88 347.099,1102.27 347.732,1030.71 348.366,1057.54 348.999,1084.38 349.633,1173.84 350.266,1169.37 350.9,1178.31 351.533,1178.31 352.167,1178.31 352.801,1173.84 353.434,1102.27 354.068,1106.75 354.701,1106.75 355.335,1155.95 355.968,1124.64 356.602,1160.42 357.235,1182.79 357.869,1209.63 358.502,1196.21 359.136,1178.31 359.77,1182.79 360.403,1191.73 361.037,1240.94 361.67,1173.84 362.304,1133.58 362.937,1030.71 363.571,1070.96 364.204,1111.22 364.838,1182.79 365.472,1227.52 366.105,1227.52 366.739,1227.52 367.372,1285.67 368.006,1276.72 368.639,1245.41 369.273,1129.11 369.906,1142.53 370.54,1173.84 371.173,1231.99 371.807,1223.04 372.441,1276.72 373.074,1325.92 373.708,1330.4 374.341,1272.25 374.975,1187.26 375.608,1102.27 376.242,1035.18 376.875,1062.02 377.509,1142.53 378.143,1182.79 378.776,1164.9 379.41,1151.48 380.043,1151.48 380.677,1133.58 381.31,1151.48 381.944,1173.84 382.577,1187.26 383.211,1142.53 383.844,1151.48 384.478,1214.1 385.112,1276.72 385.745,1285.67 386.379,1236.46 387.012,1196.21 387.646,1169.37 388.279,1182.79 388.913,1115.69 389.546,1120.17 390.18,1088.85 390.814,1169.37 391.447,1182.79 392.081,1129.11 392.714,1124.64 393.348,1124.64 393.981,1142.53 394.615,1155.95 395.248,1231.99 395.882,1272.25 396.515,1267.77 397.149,1178.31 397.783,1205.15 398.416,1187.26 399.05,1187.26 399.683,1187.26 400.317,1209.63 400.95,1191.73 401.584,1178.31 402.217,1191.73 402.851,1223.04 403.485,1223.04 404.118,1182.79 404.752,1178.31 405.385,1173.84 406.019,1187.26 406.652,1147 407.286,1124.64 407.919,1138.06 408.553,1160.42 409.186,1155.95 409.82,1231.99 410.454,1263.3 411.087,1272.25 411.721,1164.9 412.354,1147 412.988,1178.31 413.621,1191.73 414.255,1182.79 414.888,1191.73 415.522,1227.52 416.156,1227.52 416.789,1209.63 417.423,1196.21 418.056,1214.1 418.69,1214.1 419.323,1214.1 419.957,1209.63 420.59,1182.79 421.224,1196.21 421.857,1187.26 422.491,1191.73 423.125,1178.31 423.758,1164.9 424.392,1227.52 425.025,1227.52 425.659,1254.36 426.292,1214.1 426.926,1129.11 427.559,1129.11 428.193,1151.48 428.827,1236.46 429.46,1231.99 430.094,1209.63 430.727,1133.58 431.361,1115.69 431.994,1115.69 432.628,1191.73 433.261,1187.26 433.895,1178.31 434.528,1115.69 435.162,1129.11 435.796,1133.58 436.429,1191.73 437.063,1187.26 437.696,1178.31 438.33,1200.68 438.963,1209.63 439.597,1155.95 440.23,1169.37 440.864,1088.85 441.498,1097.8 442.131,1039.65 442.765,1138.06 443.398,1133.58 444.032,1120.17 444.665,1111.22 445.299,1173.84 445.932,1200.68 446.566,1187.26 447.199,1205.15 447.833,1205.15 448.467,1272.25 449.1,1129.11 449.734,1120.17 450.367,1075.44 451.001,1200.68 451.634,1200.68 452.268,1182.79 452.901,1263.3 453.535,1285.67 454.169,1214.1 454.802,1115.69 455.436,990.448 456.069,1151.48 456.703,1155.95 457.336,1254.36 457.97,1173.84 458.603,1111.22 459.237,1129.11 459.87,1124.64 460.504,1182.79 461.138,1191.73 461.771,1196.21 462.405,1164.9 463.038,1155.95 463.672,1155.95 464.305,1205.15 464.939,1178.31 465.572,1155.95 466.206,1155.95 466.84,1187.26 467.473,1205.15 468.107,1182.79 468.74,1182.79 469.374,1196.21 470.007,1205.15 470.641,1142.53 471.274,1062.02 471.908,1017.29 472.541,1164.9 473.175,1178.31 473.809,1231.99 474.442,1115.69 475.076,1160.42 475.709,1057.54 476.343,1079.91 476.976,1093.33 477.61,1200.68 478.243,1205.15 478.877,1214.1 479.511,1214.1 480.144,1223.04 480.778,1214.1 481.411,1209.63 482.045,1205.15 482.678,1173.84 483.312,1097.8 483.945,1097.8 484.579,1088.85 485.213,1178.31 485.846,1120.17 486.48,1138.06 487.113,1129.11 487.747,1191.73 488.38,1214.1 489.014,1160.42 489.647,1129.11 490.281,1151.48 490.914,1173.84 491.548,1205.15 492.182,1173.84 492.815,1205.15 493.449,1187.26 494.082,1182.79 494.716,1209.63 495.349,1178.31 495.983,1151.48 496.616,1097.8 497.25,1258.83 497.884,1290.14 498.517,1303.56 499.151,1138.06 499.784,1147 500.418,1138.06 501.051,1263.3 501.685,1254.36 502.318,1254.36 502.952,1182.79 503.585,1191.73 504.219,1231.99 504.853,1133.58 505.486,1129.11 506.12,1039.65 506.753,1124.64 507.387,1124.64 508.02,1227.52 508.654,1240.94 509.287,1254.36 509.921,1209.63 510.555,1249.88 511.188,1164.9 511.822,1164.9 512.455,1097.8 513.089,1142.53 513.722,1084.38 514.356,1084.38 514.989,1070.96 515.623,1138.06 516.256,1160.42 516.89,1205.15 517.524,1209.63 518.157,1209.63 518.791,1200.68 519.424,1182.79 520.058,1187.26 520.691,1160.42 521.325,1169.37 521.958,1155.95 522.592,1236.46 523.226,1240.94 523.859,1236.46 524.493,1223.04 525.126,1236.46 525.76,1263.3 526.393,1231.99 527.027,1205.15 527.66,1147 528.294,1147 528.927,1102.27 529.561,1151.48 530.195,1151.48 530.828,1196.21 531.462,1169.37 532.095,1169.37 532.729,1227.52 533.362,1236.46 533.996,1155.95 534.629,1093.33 535.263,1053.07 535.897,1120.17 536.53,1115.69 537.164,1173.84 537.797,1173.84 538.431,1169.37 539.064,1169.37 539.698,1164.9 540.331,1173.84 540.965,1218.57 541.598,1205.15 542.232,1214.1 542.866,1053.07 543.499,1106.75 544.133,1115.69 544.766,1231.99 545.4,1097.8 546.033,1039.65 546.667,1039.65 547.3,1147 547.934,1173.84 548.568,1173.84 549.201,1164.9 549.835,1178.31 550.468,1120.17 551.102,1120.17 551.735,1160.42 552.369,1218.57 553.002,1196.21 553.636,1147 554.269,1111.22 554.903,1147 555.537,1164.9 556.17,1196.21 556.804,1191.73 557.437,1196.21 558.071,1214.1 558.704,1218.57 559.338,1205.15 559.971,1214.1 560.605,1155.95 561.239,1178.31 561.872,1097.8 562.506,1155.95 563.139,1173.84 563.773,1191.73 564.406,1249.88 565.04,1223.04 565.673,1218.57 566.307,1173.84 566.94,1182.79 567.574,1218.57 568.208,1205.15 568.841,1182.79 569.475,1182.79 570.108,1133.58 570.742,1151.48 571.375,1155.95 572.009,1191.73 572.642,1187.26 573.276,1178.31 573.91,1062.02 574.543,1066.49 575.177,1079.91 575.81,1209.63 576.444,1272.25 577.077,1254.36 577.711,1093.33 578.344,1008.34 578.978,1012.81 579.611,1151.48 580.245,1178.31 580.879,1182.79 581.512,1223.04 582.146,1223.04 582.779,1325.92 583.413,1249.88 584.046,1227.52 584.68,1133.58 585.313,1151.48 585.947,1205.15 586.581,1240.94 587.214,1258.83 587.848,1223.04 588.481,1066.49 589.115,1062.02 589.748,1008.34 590.382,1075.44 591.015,1088.85 591.649,1048.6 592.282,1102.27 592.916,1111.22 593.55,1169.37 594.183,1155.95 594.817,1155.95 595.45,1191.73 596.084,1223.04 596.717,1267.77 597.351,1245.41 597.984,1223.04 598.618,1075.44 599.252,1093.33 599.885,1026.23 600.519,1142.53 601.152,1070.96 601.786,1093.33 602.419,1039.65 603.053,1120.17 603.686,1178.31 604.32,1223.04 604.953,1245.41 605.587,1236.46 606.221,1223.04 606.854,1200.68 607.488,1200.68 608.121,1227.52 608.755,1223.04 609.388,1223.04 610.022,1205.15 610.655,1187.26 611.289,1093.33 611.923,1093.33 612.556,1111.22 613.19,1245.41 613.823,1160.42 614.457,1066.49 615.09,1008.34 615.724,1088.85 616.357,1196.21 616.991,1214.1 617.624,1214.1 618.258,1196.21 618.892,1187.26 619.525,1160.42 620.159,1093.33 620.792,1084.38 621.426,1142.53 622.059,1218.57 622.693,1231.99 623.326,1147 623.96,1138.06 624.594,1214.1 625.227,1276.72 625.861,1312.5 626.494,1227.52 627.128,1191.73 627.761,1164.9 628.395,1142.53 629.028,1187.26 629.662,1133.58 630.295,1169.37 630.929,1129.11 631.563,1070.96 632.196,1044.12 632.83,1039.65 633.463,959.137 634.097,972.556 634.73,851.785 635.364,1062.02 635.997,1039.65 636.631,1205.15 637.265,1187.26 637.898,1191.73 638.532,1178.31 639.165,1178.31 639.799,1245.41 640.432,1343.82 641.066,1384.07 641.699,1348.29 642.333,1249.88 642.966,1205.15 643.6,1205.15 644.234,1191.73 644.867,1187.26 645.501,1178.31 646.134,1191.73 646.768,1209.63 647.401,1138.06 648.035,1133.58 648.668,1093.33 649.302,1263.3 649.936,1214.1 650.569,1214.1 651.203,1120.17 651.836,1129.11 652.47,1106.75 653.103,1102.27 653.737,963.61 654.37,1003.87 655.004,1008.34 655.637,1182.79 656.271,1196.21 656.905,1142.53 657.538,1164.9 658.172,1160.42 658.805,1218.57 659.439,1218.57 660.072,1223.04 660.706,1209.63 661.339,1214.1 661.973,1062.02 662.607,1057.54 663.24,981.502 663.874,1124.64 664.507,1142.53 665.141,1178.31 665.774,1227.52 666.408,1312.5 667.041,1339.34 667.675,1263.3 668.308,1178.31 668.942,1164.9 669.576,1196.21 670.209,1191.73 670.843,1173.84 671.476,1178.31 672.11,1173.84 672.743,1205.15 673.377,1231.99 674.01,1249.88 674.644,1236.46 675.278,1205.15 675.911,1196.21 676.545,1231.99 677.178,1258.83 677.812,1214.1 678.445,1258.83 679.079,1214.1 679.712,1240.94 680.346,1173.84 680.979,1196.21 681.613,1115.69 682.247,1115.69 682.88,1133.58 683.514,1231.99 684.147,1227.52 684.781,1151.48 685.414,1111.22 686.048,1111.22 686.681,1160.42 687.315,1169.37 687.949,1155.95 688.582,1187.26 689.216,1214.1 689.849,1142.53 690.483,1115.69 691.116,1111.22 691.75,1120.17 692.383,1124.64 693.017,1129.11 693.65,1209.63 694.284,1209.63 694.918,1214.1 695.551,1097.8 696.185,1106.75 696.818,1097.8 697.452,1205.15 698.085,1169.37 698.719,1169.37 699.352,1178.31 699.986,1218.57 700.62,1223.04 701.253,1182.79 701.887,1106.75 702.52,1079.91 703.154,1115.69 703.787,1048.6 704.421,1070.96 705.054,1062.02 705.688,1191.73 706.321,1173.84 706.955,1187.26 707.589,1169.37 708.222,1196.21 708.856,1182.79 709.489,1249.88 710.123,1178.31 710.756,1151.48 711.39,1097.8 712.023,1191.73 712.657,1191.73 713.291,1182.79 713.924,1160.42 714.558,1236.46 715.191,1138.06 715.825,1021.76 716.458,999.394 717.092,1111.22 717.725,1254.36 718.359,1169.37 718.992,1236.46 719.626,1200.68 720.26,1299.09 720.893,1214.1 721.527,1142.53 722.16,1088.85 722.794,1106.75 723.427,1218.57 724.061,1236.46 724.694,1263.3 725.328,1218.57 725.962,1209.63 726.595,1173.84 727.229,1187.26 727.862,1205.15 728.496,1209.63 729.129,1196.21 729.763,1205.15 730.396,1124.64 731.03,1106.75 731.663,1093.33 732.297,1142.53 732.931,1160.42 733.564,1102.27 734.198,1124.64 734.831,1138.06 735.465,1169.37 736.098,1173.84 736.732,1097.8 737.365,1124.64 737.999,1129.11 738.633,1155.95 739.266,1160.42 739.9,1164.9 740.533,1214.1 741.167,1214.1 741.8,1200.68 742.434,1245.41 743.067,1245.41 743.701,1111.22 744.334,1057.54 744.968,1057.54 745.602,1115.69 746.235,1124.64 746.869,1115.69 747.502,1138.06 748.136,1151.48 748.769,1142.53 749.403,1182.79 750.036,1169.37 750.67,1164.9 751.304,1205.15 751.937,1093.33 752.571,1111.22 753.204,1093.33 753.838,1196.21 754.471,1187.26 755.105,1254.36 755.738,1258.83 756.372,1258.83 757.006,1196.21 757.639,1200.68 758.273,1200.68 758.906,1196.21 759.54,1160.42 760.173,1169.37 760.807,1173.84 761.44,1169.37 762.074,1138.06 762.707,1124.64 763.341,1053.07 763.975,1088.85 764.608,1097.8 765.242,1209.63 765.875,1070.96 766.509,1053.07 767.142,985.975 767.776,1138.06 768.409,1160.42 769.043,1227.52 769.677,1214.1 770.31,1200.68 770.944,1200.68 771.577,1187.26 772.211,1138.06 772.844,1035.18 773.478,1039.65 774.111,1093.33 774.745,1191.73 775.378,1187.26 776.012,1169.37 776.646,1173.84 777.279,1151.48 777.913,1160.42 778.546,1147 779.18,1169.37 779.813,1187.26 780.447,1200.68 781.08,1191.73 781.714,1191.73 782.348,1187.26 782.981,1209.63 783.615,1209.63 784.248,1142.53 784.882,1111.22 785.515,1070.96 786.149,1142.53 786.782,1160.42 787.416,1196.21 788.049,1160.42 788.683,1138.06 789.317,994.921 789.95,1003.87 790.584,1026.23 791.217,1173.84 791.851,1200.68 792.484,1182.79 793.118,1169.37 793.751,1155.95 794.385,1160.42 795.019,1173.84 795.652,1196.21 796.286,1191.73 796.919,1151.48 797.553,1142.53 798.186,1169.37 798.82,1209.63 799.453,1205.15 800.087,1205.15 800.72,1160.42 801.354,1147 801.988,1147 802.621,1079.91 803.255,985.975 803.888,981.502 804.522,1088.85 805.155,1182.79 805.789,1151.48 806.422,1155.95 807.056,1138.06 807.69,1187.26 808.323,1182.79 808.957,1294.61 809.59,1191.73 810.224,1236.46 810.857,1151.48 811.491,1227.52 812.124,1187.26 812.758,1196.21 813.391,1191.73 814.025,1231.99 814.659,1227.52 815.292,1209.63 815.926,1160.42 816.559,1030.71 817.193,1062.02 817.826,1160.42 818.46,1290.14 819.093,1281.19 819.727,1187.26 820.361,1097.8 820.994,1124.64 821.628,1120.17 822.261,1097.8 822.895,1106.75 823.528,1115.69 824.162,1205.15 824.795,1173.84 825.429,1160.42 826.062,1182.79 826.696,1182.79 827.33,1187.26 827.963,1187.26 828.597,1187.26 829.23,1196.21 829.864,1267.77 830.497,1276.72 831.131,1231.99 831.764,1263.3 832.398,1254.36 833.032,1281.19 833.665,1178.31 834.299,1191.73 834.932,1209.63 835.566,1205.15 836.199,1196.21 836.833,1205.15 837.466,1187.26 838.1,1231.99 838.733,1205.15 839.367,1209.63 840.001,1173.84 840.634,1160.42 841.268,1160.42 841.901,1151.48 842.535,1178.31 843.168,1178.31 843.802,1223.04 844.435,1285.67 845.069,1308.03 845.703,1267.77 846.336,1191.73 846.97,1245.41 847.603,1263.3 848.237,1281.19 848.87,1227.52 849.504,1214.1 850.137,1227.52 850.771,1209.63 851.404,1182.79 852.038,1155.95 852.672,1182.79 853.305,1196.21 853.939,1209.63 854.572,1062.02 855.206,1035.18 855.839,1012.81 856.473,1147 857.106,1053.07 857.74,1057.54 858.374,1070.96 859.007,1205.15 859.641,1196.21 860.274,1178.31 860.908,1178.31 861.541,1223.04 862.175,1240.94 862.808,1236.46 863.442,1205.15 864.075,1214.1 864.709,1218.57 865.343,1218.57 865.976,1196.21 866.61,1182.79 867.243,1178.31 867.877,1111.22 868.51,1133.58 869.144,1147 869.777,1200.68 870.411,1155.95 871.045,1147 871.678,1138.06 872.312,1142.53 872.945,1147 873.579,1160.42 874.212,1187.26 874.846,1218.57 875.479,1160.42 876.113,1120.17 876.746,1044.12 877.38,1030.71 878.014,1075.44 878.647,1093.33 879.281,1151.48 879.914,1124.64 880.548,1155.95 881.181,1178.31 881.815,1115.69 882.448,1102.27 883.082,1079.91 883.716,1160.42 884.349,1124.64 884.983,1151.48 885.616,1151.48 886.25,1205.15 886.883,1214.1 887.517,1205.15 888.15,1214.1 888.784,1191.73 889.417,1173.84 890.051,1164.9 890.685,1138.06 891.318,1191.73 891.952,1200.68 892.585,1249.88 893.219,1200.68 893.852,1155.95 894.486,1142.53 895.119,1147 895.753,1231.99 896.387,1231.99 897.02,1160.42 897.654,1044.12 898.287,1017.29 898.921,1129.11 899.554,1196.21 900.188,1209.63 900.821,1187.26 901.455,1205.15 902.088,1223.04 902.722,1133.58 903.356,1147 903.989,1142.53 904.623,1236.46 905.256,1191.73 905.89,1196.21 906.523,1200.68 907.157,1200.68 907.79,1196.21 908.424,1178.31 909.058,1182.79 909.691,1182.79 910.325,1187.26 910.958,1231.99 911.592,1236.46 912.225,1276.72 912.859,1173.84 913.492,1173.84 914.126,1142.53 914.759,1173.84 915.393,1147 916.027,1097.8 916.66,1133.58 917.294,1124.64 917.927,1155.95 918.561,1151.48 919.194,1169.37 919.828,1182.79 920.461,1169.37 921.095,1084.38 921.729,1093.33 922.362,1070.96 922.996,1196.21 923.629,1151.48 924.263,1155.95 924.896,1097.8 925.53,1138.06 926.163,1147 926.797,1182.79 927.43,1151.48 928.064,1142.53 928.698,1138.06 929.331,1164.9 929.965,1191.73 930.598,1205.15 931.232,1209.63 931.865,1097.8 932.499,1066.49 933.132,1097.8 933.766,1227.52 934.4,1214.1 935.033,1209.63 935.667,1196.21 936.3,1209.63 936.934,1164.9 937.567,1075.44 938.201,1169.37 938.834,1191.73 939.468,1151.48 940.101,1048.6 940.735,1030.71 941.369,1173.84 942.002,1205.15 942.636,1209.63 943.269,1191.73 943.903,1205.15 944.536,1218.57 945.17,1209.63 945.803,1196.21 946.437,1209.63 947.071,1124.64 947.704,1084.38 948.338,918.88 948.971,1021.76 949.605,1039.65 950.238,1138.06 950.872,1115.69 951.505,1120.17 952.139,1169.37 952.772,1218.57 953.406,1227.52 954.04,1169.37 954.673,1106.75 955.307,1111.22 955.94,1115.69 956.574,1151.48 957.207,1151.48 957.841,1209.63 958.474,1209.63 959.108,1209.63 959.742,1191.73 960.375,1138.06 961.009,1062.02 961.642,1075.44 962.276,1120.17 962.909,1200.68 963.543,1281.19 964.176,1249.88 964.81,1187.26 965.443,1111.22 966.077,1142.53 966.711,1205.15 967.344,1285.67 967.978,1276.72 968.611,1276.72 969.245,1191.73 969.878,1191.73 970.512,1191.73 971.145,1173.84 971.779,1079.91 972.413,1030.71 973.046,1048.6 973.68,1160.42 974.313,1200.68 974.947,1133.58 975.58,1066.49 976.214,1053.07 976.847,959.137 977.481,1057.54 978.114,1070.96 978.748,1236.46 979.382,1138.06 980.015,1142.53 980.649,1142.53 981.282,1097.8 981.916,1111.22 982.549,1102.27 983.183,1191.73 983.816,1182.79 984.45,1187.26 985.084,1120.17 985.717,1227.52 986.351,1214.1 986.984,1357.23 987.618,1249.88 988.251,1249.88 988.885,1191.73 989.518,1182.79 990.152,1200.68 990.785,1218.57 991.419,1187.26 992.053,1129.11 992.686,1111.22 993.32,1151.48 993.953,1223.04 994.587,1258.83 995.22,1249.88 995.854,1236.46 996.487,1200.68 997.121,1205.15 997.755,1205.15 998.388,1200.68 999.022,1205.15 999.655,1218.57 1000.29,1227.52 1000.92,1223.04 1001.56,1173.84 1002.19,1124.64 1002.82,1129.11 1003.46,1102.27 1004.09,1151.48 1004.72,1178.31 1005.36,1200.68 1005.99,1151.48 1006.62,1088.85 1007.26,1044.12 1007.89,1093.33 1008.52,1093.33 1009.16,1129.11 1009.79,1084.38 1010.43,1115.69 1011.06,1164.9 1011.69,1200.68 1012.33,1200.68 1012.96,1196.21 1013.59,1147 1014.23,1267.77 1014.86,1258.83 1015.49,1267.77 1016.13,1151.48 1016.76,1164.9 1017.39,1160.42 1018.03,1160.42 1018.66,1160.42 1019.3,1196.21 1019.93,1138.06 1020.56,1205.15 1021.2,1231.99 1021.83,1299.09 1022.46,1218.57 1023.1,1178.31 1023.73,1151.48 1024.36,1142.53 1025,1169.37 1025.63,1182.79 1026.26,1151.48 1026.9,1129.11 1027.53,1111.22 1028.16,1173.84 1028.8,1102.27 1029.43,1115.69 1030.07,1079.91 1030.7,1178.31 1031.33,1276.72 1031.97,1330.4 1032.6,1339.34 1033.23,1236.46 1033.87,1209.63 1034.5,1200.68 1035.13,1124.64 1035.77,1088.85 1036.4,1066.49 1037.03,1062.02 1037.67,1106.75 1038.3,1129.11 1038.94,1223.04 1039.57,1182.79 1040.2,1138.06 1040.84,1147 1041.47,1133.58 1042.1,1187.26 1042.74,1173.84 1043.37,1200.68 1044,1209.63 1044.64,1214.1 1045.27,1231.99 1045.9,1205.15 1046.54,1173.84 1047.17,1111.22 1047.81,1102.27 1048.44,1093.33 1049.07,1106.75 1049.71,1111.22 1050.34,1151.48 1050.97,1084.38 1051.61,977.029 1052.24,851.785 1052.87,963.61 1053.51,1084.38 1054.14,1218.57 1054.77,1223.04 1055.41,1223.04 1056.04,1093.33 1056.67,1093.33 1057.31,1088.85 1057.94,1115.69 1058.58,1133.58 1059.21,1075.44 1059.84,1115.69 1060.48,1044.12 1061.11,1106.75 1061.74,1111.22 1062.38,1017.29 1063.01,1017.29 1063.64,1053.07 1064.28,1258.83 1064.91,1218.57 1065.54,1218.57 1066.18,1160.42 1066.81,1182.79 1067.45,1196.21 1068.08,1187.26 1068.71,1178.31 1069.35,1026.23 1069.98,1030.71 1070.61,985.975 1071.25,1129.11 1071.88,1124.64 1072.51,1187.26 1073.15,1187.26 1073.78,1191.73 1074.41,1200.68 1075.05,1209.63 1075.68,1223.04 1076.31,1223.04 1076.95,1214.1 1077.58,1200.68 1078.22,1196.21 1078.85,1102.27 1079.48,1044.12 1080.12,1017.29 1080.75,1120.17 1081.38,1205.15 1082.02,1169.37 1082.65,1097.8 1083.28,1088.85 1083.92,1133.58 1084.55,1223.04 1085.18,1330.4 1085.82,1339.34 1086.45,1281.19 1087.09,1151.48 1087.72,1164.9 1088.35,1205.15 1088.99,1178.31 1089.62,1106.75 1090.25,1129.11 1090.89,1155.95 1091.52,1218.57 1092.15,1187.26 1092.79,1196.21 1093.42,1205.15 1094.05,1191.73 1094.69,1160.42 1095.32,1173.84 1095.95,1173.84 1096.59,1124.64 1097.22,1138.06 1097.86,1155.95 1098.49,1214.1 1099.12,1187.26 1099.76,1205.15 1100.39,1044.12 1101.02,1044.12 1101.66,999.394 1102.29,1155.95 1102.92,1147 1103.56,1138.06 1104.19,1120.17 1104.82,1106.75 1105.46,1138.06 1106.09,1173.84 1106.73,1196.21 1107.36,1187.26 1107.99,1214.1 1108.63,1169.37 1109.26,1200.68 1109.89,1173.84 1110.53,1075.44 1111.16,1021.76 1111.79,1021.76 1112.43,1173.84 1113.06,1214.1 1113.69,1258.83 1114.33,1133.58 1114.96,1120.17 1115.59,999.394 1116.23,1044.12 1116.86,1057.54 1117.5,1138.06 1118.13,1182.79 1118.76,1231.99 1119.4,1249.88 1120.03,1214.1 1120.66,1138.06 1121.3,1124.64 1121.93,1133.58 1122.56,1160.42 1123.2,1173.84 1123.83,1249.88 1124.46,1214.1 1125.1,1079.91 1125.73,1093.33 1126.37,1102.27 1127,1223.04 1127.63,1160.42 1128.27,1129.11 1128.9,1142.53 1129.53,1164.9 1130.17,1218.57 1130.8,1191.73 1131.43,1160.42 1132.07,1209.63 1132.7,1240.94 1133.33,1290.14 1133.97,1231.99 1134.6,1209.63 1135.23,1191.73 1135.87,1133.58 1136.5,1133.58 1137.14,1147 1137.77,1236.46 1138.4,1223.04 1139.04,1214.1 1139.67,1187.26 1140.3,1191.73 1140.94,1120.17 1141.57,1124.64 1142.2,1129.11 1142.84,1196.21 1143.47,1066.49 1144.1,1075.44 1144.74,1066.49 1145.37,1182.79 1146.01,1164.9 1146.64,1084.38 1147.27,1084.38 1147.91,1120.17 1148.54,1299.09 1149.17,1316.98 1149.81,1299.09 1150.44,1120.17 1151.07,1102.27 1151.71,1115.69 1152.34,1142.53 1152.97,1187.26 1153.61,1164.9 1154.24,1196.21 1154.87,1187.26 1155.51,1191.73 1156.14,1223.04 1156.78,1169.37 1157.41,1240.94 1158.04,1285.67 1158.68,1227.52 1159.31,1160.42 1159.94,1102.27 1160.58,1196.21 1161.21,1196.21 1161.84,1214.1 1162.48,1097.8 1163.11,1097.8 1163.74,1075.44 1164.38,1191.73 1165.01,1102.27 1165.65,1093.33 1166.28,1066.49 1166.91,1102.27 1167.55,1129.11 1168.18,1155.95 1168.81,1223.04 1169.45,1196.21 1170.08,1191.73 1170.71,1178.31 1171.35,1196.21 1171.98,1191.73 1172.61,1209.63 1173.25,1214.1 1173.88,1214.1 1174.52,1155.95 1175.15,1160.42 1175.78,1129.11 1176.42,1070.96 1177.05,1084.38 1177.68,1133.58 1178.32,1231.99 1178.95,1223.04 1179.58,1240.94 1180.22,1231.99 1180.85,1218.57 1181.48,1200.68 1182.12,1209.63 1182.75,1361.71 1183.38,1281.19 1184.02,1245.41 1184.65,1066.49 1185.29,1138.06 1185.92,1147 1186.55,1169.37 1187.19,1164.9 1187.82,1178.31 1188.45,1088.85 1189.09,1021.76 1189.72,1026.23 1190.35,1057.54 1190.99,1173.84 1191.62,1124.64 1192.25,1191.73 1192.89,1160.42 1193.52,1214.1 1194.16,1178.31 1194.79,1187.26 1195.42,1182.79 1196.06,1227.52 1196.69,1214.1 1197.32,1218.57 1197.96,1218.57 1198.59,1205.15 1199.22,1111.22 1199.86,1164.9 1200.49,1079.91 1201.12,1129.11 1201.76,1070.96 1202.39,1155.95 1203.02,1205.15 1203.66,1191.73 1204.29,1124.64 1204.93,1084.38 1205.56,1155.95 1206.19,1200.68 1206.83,1285.67 1207.46,1231.99 1208.09,1276.72 1208.73,1142.53 1209.36,1102.27 1209.99,1115.69 1210.63,1200.68 1211.26,1155.95 1211.89,1106.75 1212.53,1030.71 1213.16,1102.27 1213.8,1093.33 1214.43,1276.72 1215.06,1290.14 1215.7,1312.5 1216.33,1191.73 1216.96,1124.64 1217.6,1079.91 1218.23,941.245 1218.86,972.556 1219.5,977.029 1220.13,1115.69 1220.76,1120.17 1221.4,1120.17 1222.03,1120.17 1222.66,1147 1223.3,1164.9 1223.93,1111.22 1224.57,1124.64 1225.2,1147 1225.83,1231.99 1226.47,1214.1 1227.1,1182.79 1227.73,1160.42 1228.37,1147 1229,1147 1229.63,1191.73 1230.27,1191.73 1230.9,1223.04 1231.53,1111.22 1232.17,1133.58 1232.8,1138.06 1233.44,1209.63 1234.07,1227.52 1234.7,1227.52 1235.34,1200.68 1235.97,1191.73 1236.6,1182.79 1237.24,1214.1 1237.87,1173.84 1238.5,1129.11 1239.14,1120.17 1239.77,1151.48 1240.4,1205.15 1241.04,1196.21 1241.67,1182.79 1242.3,1205.15 1242.94,1214.1 1243.57,1236.46 1244.21,1214.1 1244.84,1223.04 1245.47,1214.1 1246.11,1133.58 1246.74,990.448 1247.37,1035.18 1248.01,1079.91 1248.64,1299.09 1249.27,1281.19 1249.91,1254.36 1250.54,1164.9 1251.17,1138.06 1251.81,1155.95 1252.44,1169.37 1253.08,1070.96 1253.71,1066.49 1254.34,1066.49 1254.98,1138.06 1255.61,1182.79 1256.24,1182.79 1256.88,1205.15 1257.51,1075.44 1258.14,1039.65 1258.78,1044.12 1259.41,1178.31 1260.04,1196.21 1260.68,1088.85 1261.31,1084.38 1261.94,1102.27 1262.58,1205.15 1263.21,1209.63 1263.85,1200.68 1264.48,1240.94 1265.11,1200.68 1265.75,1178.31 1266.38,1164.9 1267.01,1160.42 1267.65,1138.06 1268.28,1102.27 1268.91,1142.53 1269.55,1138.06 1270.18,1151.48 1270.81,1155.95 1271.45,1209.63 1272.08,1227.52 1272.72,1249.88 1273.35,1254.36 1273.98,1294.61 1274.62,1245.41 1275.25,1231.99 1275.88,1155.95 1276.52,1182.79 1277.15,1147 1277.78,1075.44 1278.42,1070.96 1279.05,1093.33 1279.68,1084.38 1280.32,1075.44 1280.95,1102.27 1281.58,1178.31 1282.22,1205.15 1282.85,1214.1 1283.49,1285.67 1284.12,1281.19 1284.75,1272.25 1285.39,1223.04 1286.02,1209.63 1286.65,1196.21 1287.29,1231.99 1287.92,1231.99 1288.55,1245.41 1289.19,1196.21 1289.82,1191.73 1290.45,1151.48 1291.09,1173.84 1291.72,1160.42 1292.36,1196.21 1292.99,1196.21 1293.62,1173.84 1294.26,1178.31 1294.89,1160.42 1295.52,1218.57 1296.16,1276.72 1296.79,1285.67 1297.42,1227.52 1298.06,1142.53 1298.69,1106.75 1299.32,1147 1299.96,1111.22 1300.59,1147 1301.23,1173.84 1301.86,1223.04 1302.49,1245.41 1303.13,1223.04 1303.76,1236.46 1304.39,1209.63 1305.03,1169.37 1305.66,1066.49 1306.29,1133.58 1306.93,1160.42 1307.56,1169.37 1308.19,1106.75 1308.83,1048.6 1309.46,1133.58 1310.09,1129.11 1310.73,1254.36 1311.36,1200.68 1312,1178.31 1312.63,990.448 1313.26,999.394 1313.9,1097.8 1314.53,1290.14 1315.16,1343.82 1315.8,1142.53 1316.43,1048.6 1317.06,1048.6 1317.7,1191.73 1318.33,1227.52 1318.96,1334.87 1319.6,1245.41 1320.23,1245.41 1320.87,1129.11 1321.5,1240.94 1322.13,1240.94 1322.77,1249.88 1323.4,1182.79 1324.03,1097.8 1324.67,1084.38 1325.3,1093.33 1325.93,1178.31 1326.57,1084.38 1327.2,1048.6 1327.83,977.029 1328.47,1039.65 1329.1,1093.33 1329.73,1164.9 1330.37,1182.79 1331,1227.52 1331.64,1200.68 1332.27,1124.64 1332.9,1093.33 1333.54,1120.17 1334.17,1205.15 1334.8,1196.21 1335.44,1178.31 1336.07,1191.73 1336.7,1191.73 1337.34,1200.68 1337.97,1245.41 1338.6,1178.31 1339.24,1173.84 1339.87,1057.54 1340.51,1227.52 1341.14,1187.26 1341.77,1231.99 1342.41,1106.75 1343.04,1160.42 1343.67,1191.73 1344.31,1187.26 1344.94,1236.46 1345.57,1236.46 1346.21,1236.46 1346.84,1173.84 1347.47,1147 1348.11,1187.26 1348.74,1120.17 1349.37,1142.53 1350.01,1044.12 1350.64,1124.64 1351.28,1057.54 1351.91,1142.53 1352.54,1142.53 1353.18,1223.04 1353.81,1223.04 1354.44,1200.68 1355.08,1138.06 1355.71,1133.58 1356.34,1151.48 1356.98,1205.15 1357.61,1218.57 1358.24,1191.73 1358.88,1191.73 1359.51,1182.79 1360.15,1205.15 1360.78,1205.15 1361.41,1214.1 1362.05,1223.04 1362.68,1223.04 1363.31,1178.31 1363.95,1178.31 1364.58,1147 1365.21,1214.1 1365.85,1205.15 1366.48,1236.46 1367.11,1164.9 1367.75,1173.84 1368.38,1133.58 1369.01,1133.58 1369.65,1093.33 1370.28,1102.27 1370.92,1133.58 1371.55,1097.8 1372.18,1129.11 1372.82,1124.64 1373.45,1263.3 1374.08,1263.3 1374.72,1276.72 1375.35,1209.63 1375.98,1178.31 1376.62,1191.73 1377.25,1173.84 1377.88,1196.21 1378.52,1178.31 1379.15,1129.11 1379.79,1133.58 1380.42,1138.06 1381.05,1223.04 1381.69,1223.04 1382.32,1254.36 1382.95,1254.36 1383.59,1214.1 1384.22,1209.63 1384.85,1191.73 1385.49,1245.41 1386.12,1097.8 1386.75,1012.81 1387.39,990.448 1388.02,1066.49 1388.65,1097.8 1389.29,1111.22 1389.92,1093.33 1390.56,1088.85 1391.19,1097.8 1391.82,1093.33 1392.46,1151.48 1393.09,1142.53 1393.72,1147 1394.36,1133.58 1394.99,1133.58 1395.62,1214.1 1396.26,1209.63 1396.89,1209.63 1397.52,1142.53 1398.16,1178.31 1398.79,1187.26 1399.43,1191.73 1400.06,1097.8 1400.69,1003.87 1401.33,945.718 1401.96,1021.76 1402.59,1093.33 1403.23,1254.36 1403.86,1258.83 1404.49,1316.98 1405.13,1258.83 1405.76,1209.63 1406.39,1164.9 1407.03,1093.33 1407.66,1053.07 1408.3,1048.6 1408.93,963.61 1409.56,869.677 1410.2,842.839 1410.83,927.826 1411.46,1102.27 1412.1,1079.91 1412.73,1142.53 1413.36,1142.53 1414,1102.27 1414.63,1102.27 1415.26,1088.85 1415.9,1173.84 1416.53,1223.04 1417.16,1236.46 1417.8,1200.68 1418.43,1133.58 1419.07,1133.58 1419.7,1160.42 1420.33,1133.58 1420.97,1178.31 1421.6,1187.26 1422.23,1236.46 1422.87,1196.21 1423.5,1245.41 1424.13,1245.41 1424.77,1249.88 1425.4,1151.48 1426.03,1164.9 1426.67,1205.15 1427.3,1263.3 1427.94,1254.36 1428.57,1214.1 1429.2,1276.72 1429.84,1272.25 1430.47,1272.25 1431.1,1205.15 1431.74,1209.63 1432.37,1209.63 1433,1343.82 1433.64,1384.07 1434.27,1375.13 1434.9,1164.9 1435.54,1039.65 1436.17,1017.29 1436.8,1097.8 1437.44,1178.31 1438.07,1312.5 1438.71,1281.19 1439.34,1281.19 1439.97,1084.38 1440.61,1133.58 1441.24,1138.06 1441.87,1231.99 1442.51,1196.21 1443.14,1187.26 1443.77,1151.48 1444.41,1169.37 1445.04,1053.07 1445.67,1035.18 1446.31,999.394 1446.94,1120.17 1447.58,1111.22 1448.21,1182.79" id="path23" style="fill:none;stroke:#0000B4;stroke-width:1;stroke-linecap:butt;stroke-linejoin:miter" />
</g>
<g id="plot2">
   <text x="750" y="60" id="text24" style="font-size:44;text-anchor:middle"> <tspan id="tspan24">Difference in single depth samples</tspan></text>
   <text x="183.01" y="684.6" id="text25" style="font-size:33;text-anchor:middle"> <tspan id="tspan25">0</tspan></text>
   <text x="309.593" y="684.6" id="text26" style="font-size:33;text-anchor:middle"> <tspan id="tspan26">200</tspan></text>
   <text x="436.176" y="684.6" id="text27" style="font-size:33;text-anchor:middle"> <tspan id="tspan27">400</tspan></text>
   <text x="562.759" y="684.6" id="text28" style="font-size:33;text-anchor:middle"> <tspan id="tspan28">600</tspan></text>
   <text x="689.342" y="684.6" id="text29" style="font-size:33;text-anchor:middle"> <tspan id="tspan29">800</tspan></text>
   <text x="815.926" y="684.6" id="text30" style="font-size:33;text-anchor:middle"> <tspan id="tspan30">1000</tspan></text>
   <text x="942.509" y="684.6" id="text31" style="font-size:33;text-anchor:middle"> <tspan id="tspan31">1200</tspan></text>
   <text x="1069.09" y="684.6" id="text32" style="font-size:33;text-anchor:middle"> <tspan id="tspan32">1400</tspan></text>
   <text x="1195.68" y="684.6" id="text33" style="font-size:33;text-anchor:middle"> <tspan id="tspan33">1600</tspan></text>
   <text x="1322.26" y="684.6" id="text34" style="font-size:33;text-anchor:middle"> <tspan id="tspan34">1800</tspan></text>
   <text x="1448.84" y="684.6" id="text35" style="font-size:33;text-anchor:middle"> <tspan id="tspan35">2000</tspan></text>
   <text x="158.351" y="653.8" id="text36" style="font-size:33;text-anchor:end"> <tspan id="tspan36">-30</tspan></text>
   <text x="158.351" y="582.8" id="text37" style="font-size:33;text-anchor:end"> <tspan id="tspan37">-20</tspan></text>
   <text x="158.351" y="511.8" id="text38" style="font-size:33;text-anchor:end"> <tspan id="tspan38">-10</tspan></text>
   <text x="158.351" y="439.8" id="text39" style="font-size:33;text-anchor:end"> <tspan id="tspan39">0</tspan></text>
   <text x="158.351" y="368.8" id="text40" style="font-size:33;text-anchor:end"> <tspan id="tspan40">10</tspan></text>
   <text x="158.351" y="297.8" id="text41" style="font-size:33;text-anchor:end"> <tspan id="tspan41">20</tspan></text>
   <text x="158.351" y="226.8" id="text42" style="font-size:33;text-anchor:end"> <tspan id="tspan42">30</tspan></text>
   <text x="158.351" y="155.8" id="text43" style="font-size:33;text-anchor:end"> <tspan id="tspan43">40</tspan></text>
   <path d="M 309.593,634.073 309.593,92.839 M 436.176,634.073 436.176,92.839 M 562.759,634.073 562.759,92.839 M 689.342,634.073 689.342,92.839 M 815.926,634.073 815.926,92.839 M 942.509,634.073 942.509,92.839 M 1069.09,634.073 1069.09,92.839 M 1195.68,634.073 1195.68,92.839 M 1322.26,634.073 1322.26,92.839 M 183.643,562.858 1448.21,562.858 M 183.643,491.643 1448.21,491.643 M 183.643,420.428 1448.21,420.428 M 183.643,349.213 1448.21,349.213 M 183.643,277.998 1448.21,277.998 M 183.643,206.783 1448.21,206.783 M 183.643,135.568 1448.21,135.568" id="path44" style="fill:none;stroke:#000000;stroke-width:0.225;stroke-linecap:butt;stroke-linejoin:miter;stroke-dasharray:7,3" />
   <path d="M 183.01,634.073 183.01,639.485 M 309.593,634.073 309.593,639.485 M 436.176,634.073 436.176,639.485 M 562.759,634.073 562.759,639.485 M 689.342,634.073 689.342,639.485 M 815.926,634.073 815.926,639.485 M 942.509,634.073 942.509,639.485 M 1069.09,634.073 1069.09,639.485 M 1195.68,634.073 1195.68,639.485 M 1322.26,634.073 1322.26,639.485 M 1448.84,634.073 1448.84,639.485" id="path45" style="fill:none;stroke:#000000;stroke-width:1.125;stroke-linecap:butt;stroke-linejoin:miter" />
   <path d="M 183.643,634.073 170.997,634.073 M 183.643,562.858 170.997,562.858 M 183.643,491.643 170.997,491.643 M 183.643,420.428 170.997,420.428 M 183.643,349.213 170.997,349.213 M 183.643,277.998 170.997,277.998 M 183.643,206.783 170.997,206.783 M 183.643,135.568 170.997,135.568" id="path46" style="fill:none;stroke:#000000;stroke-width:1.125;stroke-linecap:butt;stroke-linejoin:miter" />
   <path d="M 183.643,634.073 183.643,92.839 1448.21,92.839 1448.21,634.073 z" id="path47" style="fill:none;stroke:#000000;stroke-width:1.125;stroke-linecap:butt;stroke-linejoin:miter" />
   <text x="815.926" y="735" id="text48" style="font-size:35;text-anchor:middle"> <tspan id="tspan48">Sample index</tspan></text>
   <g transform="matrix(6.12323e-017,-1,1,6.12323e-017,26.5,363)"><text x="0" y="42" id="text49" style="font-size:35;text-anchor:middle"> <tspan id="tspan49">Sample difference</tspan></text></g>
   <path d="M 183.643,363.456 184.276,391.942 184.908,285.119 185.541,399.063 186.174,413.306 186.807,441.792 187.44,377.699 188.073,413.306 188.706,413.306 189.339,456.035 189.972,413.306 190.605,313.605 191.238,413.306 191.871,399.063 192.503,349.213 193.136,270.876 193.769,399.063 194.402,541.493 195.035,413.306 195.668,327.848 196.301,384.82 196.934,270.876 197.567,342.091 198.2,399.063 198.833,370.577 199.466,463.157 200.098,427.549 200.731,349.213 201.364,406.185 201.997,363.456 202.63,406.185 203.263,356.334 203.896,477.4 204.529,399.063 205.162,413.306 205.795,213.904 206.428,434.671 207.061,370.577 207.693,391.942 208.326,484.521 208.959,448.914 209.592,185.418 210.225,441.792 210.858,413.306 211.491,413.306 212.124,413.306 212.757,256.633 213.39,363.456 214.023,228.147 214.656,363.456 215.288,242.39 215.921,413.306 216.554,413.306 217.187,456.035 217.82,598.465 218.453,413.306 219.086,313.605 219.719,327.848 220.352,406.185 220.985,413.306 221.618,370.577 222.251,413.306 222.883,299.362 223.516,406.185 224.149,363.456 224.782,213.904 225.415,413.306 226.048,413.306 226.681,406.185 227.314,299.362 227.947,413.306 228.58,377.699 229.213,406.185 229.846,349.213 230.478,434.671 231.111,363.456 231.744,448.914 232.377,434.671 233.01,313.605 233.643,413.306 234.276,377.699 234.909,406.185 235.542,356.334 236.175,584.222 236.808,270.876 237.44,399.063 238.073,306.484 238.706,384.82 239.339,413.306 239.972,413.306 240.605,377.699 241.238,256.633 241.871,413.306 242.504,349.213 243.137,242.39 243.77,413.306 244.403,391.942 245.035,391.942 245.668,391.942 246.301,363.456 246.934,413.306 247.567,306.484 248.2,349.213 248.833,413.306 249.466,406.185 250.099,413.306 250.732,377.699 251.365,263.755 251.998,342.091 252.63,413.306 253.263,377.699 253.896,277.998 254.529,363.456 255.162,256.633 255.795,406.185 256.428,406.185 257.061,406.185 257.694,377.699 258.327,370.577 258.96,363.456 259.593,370.577 260.225,363.456 260.858,399.063 261.491,413.306 262.124,349.213 262.757,534.372 263.39,192.54 264.023,299.362 264.656,406.185 265.289,413.306 265.922,370.577 266.555,406.185 267.188,406.185 267.82,306.484 268.453,413.306 269.086,406.185 269.719,363.456 270.352,541.493 270.985,434.671 271.618,406.185 272.251,306.484 272.884,370.577 273.517,306.484 274.15,413.306 274.783,541.493 275.415,406.185 276.048,520.129 276.681,413.306 277.314,363.456 277.947,406.185 278.58,156.932 279.213,413.306 279.846,320.727 280.479,391.942 281.112,320.727 281.745,356.334 282.378,384.82 283.01,377.699 283.643,285.119 284.276,384.82 284.909,399.063 285.542,399.063 286.175,391.942 286.808,313.605 287.441,342.091 288.074,413.306 288.707,413.306 289.34,406.185 289.973,377.699 290.605,427.549 291.238,427.549 291.871,541.493 292.504,470.278 293.137,399.063 293.77,413.306 294.403,470.278 295.036,377.699 295.669,399.063 296.302,434.671 296.935,413.306 297.568,384.82 298.2,399.063 298.833,384.82 299.466,356.334 300.099,406.185 300.732,399.063 301.365,285.119 301.998,399.063 302.631,377.699 303.264,448.914 303.897,391.942 304.53,463.157 305.163,263.755 305.795,413.306 306.428,413.306 307.061,356.334 307.694,334.97 308.327,406.185 308.96,370.577 309.593,477.4 310.226,434.671 310.859,313.605 311.492,128.446 312.125,342.091 312.757,391.942 313.39,413.306 314.023,413.306 314.656,363.456 315.289,399.063 315.922,327.848 316.555,235.269 317.188,206.783 317.821,384.82 318.454,399.063 319.087,370.577 319.72,399.063 320.352,384.82 320.985,413.306 321.618,406.185 322.251,277.998 322.884,384.82 323.517,413.306 324.15,327.848 324.783,427.549 325.416,263.755 326.049,413.306 326.682,213.904 327.315,391.942 327.947,413.306 328.58,406.185 329.213,391.942 329.846,413.306 330.479,399.063 331.112,413.306 331.745,92.839 332.378,427.549 333.011,534.372 333.644,292.241 334.277,313.605 334.91,520.129 335.542,413.306 336.175,399.063 336.808,413.306 337.441,363.456 338.074,356.334 338.707,413.306 339.34,384.82 339.973,349.213 340.606,242.39 341.239,327.848 341.872,441.792 342.505,349.213 343.137,377.699 343.77,406.185 344.403,384.82 345.036,427.549 345.669,427.549 346.302,541.493 346.935,384.82 347.568,370.577 348.201,306.484 348.834,270.876 349.467,413.306 350.1,349.213 350.732,413.306 351.365,406.185 351.998,363.456 352.631,413.306 353.264,406.185 353.897,356.334 354.53,299.362 355.163,413.306 355.796,356.334 356.429,377.699 357.062,363.456 357.695,413.306 358.327,413.306 358.96,406.185 359.593,391.942 360.226,384.82 360.859,413.306 361.492,406.185 362.125,463.157 362.758,306.484 363.391,342.091 364.024,299.362 364.657,370.577 365.29,406.185 365.922,413.306 366.555,441.792 367.188,406.185 367.821,413.306 368.454,534.372 369.087,391.942 369.72,363.456 370.353,349.213 370.986,413.306 371.619,413.306 372.252,441.792 372.885,399.063 373.517,498.764 374.15,520.129 374.783,406.185 375.416,406.185 376.049,384.82 376.682,270.876 377.315,299.362 377.948,427.549 378.581,399.063 379.214,363.456 379.847,399.063 380.48,377.699 381.112,363.456 381.745,370.577 382.378,406.185 383.011,399.063 383.644,391.942 384.277,334.97 384.91,413.306 385.543,491.643 386.176,434.671 386.809,427.549 387.442,413.306 388.074,370.577 388.707,384.82 389.34,434.671 389.973,263.755 390.606,391.942 391.239,384.82 391.872,391.942 392.505,413.306 393.138,299.362 393.771,384.82 394.404,413.306 395.037,327.848 395.669,406.185 396.302,534.372 396.935,391.942 397.568,399.063 398.201,391.942 398.834,434.671 399.467,370.577 400.1,391.942 400.733,434.671 401.366,406.185 401.999,363.456 402.632,413.306 403.264,427.549 403.897,413.306 404.53,413.306 405.163,363.456 405.796,406.185 406.429,406.185 407.062,384.82 407.695,342.091 408.328,370.577 408.961,406.185 409.594,377.699 410.227,363.456 410.859,527.25 411.492,427.549 412.125,377.699 412.758,356.334 413.391,399.063 414.024,427.549 414.657,377.699 415.29,384.82 415.923,441.792 416.556,434.671 417.189,384.82 417.822,413.306 418.454,413.306 419.087,413.306 419.72,413.306 420.353,413.306 420.986,406.185 421.619,370.577 422.252,434.671 422.885,391.942 423.518,377.699 424.151,413.306 424.784,370.577 425.417,477.4 426.049,413.306 426.682,413.306 427.315,413.306 427.948,277.998 428.581,413.306 429.214,448.914 429.847,413.306 430.48,406.185 431.113,413.306 431.746,292.241 432.379,377.699 433.012,413.306 433.644,413.306 434.277,370.577 434.91,399.063 435.543,313.605 436.176,391.942 436.809,406.185 437.442,406.185 438.075,384.82 438.708,391.942 439.341,441.792 439.974,399.063 440.607,306.484 441.239,463.157 441.872,270.876 442.505,320.727 443.138,370.577 443.771,427.549 444.404,313.605 445.037,349.213 445.67,413.306 446.303,413.306 446.936,391.942 447.569,391.942 448.202,441.792 448.834,391.942 449.467,498.764 450.1,213.904 450.733,377.699 451.366,427.549 451.999,413.306 452.632,377.699 453.265,399.063 453.898,541.493 454.531,413.306 455.164,285.119 455.796,384.82 456.429,213.904 457.062,541.493 457.695,391.942 458.328,370.577 458.961,413.306 459.594,292.241 460.227,399.063 460.86,406.185 461.493,384.82 462.126,413.306 462.759,413.306 463.391,334.97 464.024,399.063 464.657,413.306 465.29,413.306 465.923,356.334 466.556,377.699 467.189,413.306 467.822,406.185 468.455,406.185 469.088,377.699 469.721,406.185 470.354,427.549 470.986,391.942 471.619,306.484 472.252,299.362 472.885,320.727 473.518,541.493 474.151,320.727 474.784,406.185 475.417,356.334 476.05,391.942 476.683,242.39 477.316,391.942 477.949,413.306 478.581,413.306 479.214,399.063 479.847,427.549 480.48,413.306 481.113,413.306 481.746,413.306 482.379,406.185 483.012,406.185 483.645,363.456 484.278,285.119 484.911,406.185 485.544,349.213 486.176,427.549 486.809,313.605 487.442,377.699 488.075,413.306 488.708,413.306 489.341,413.306 489.974,327.848 490.607,363.456 491.24,448.914 491.873,363.456 492.506,413.306 493.139,399.063 493.771,413.306 494.404,384.82 495.037,391.942 495.67,456.035 496.303,334.97 496.936,349.213 497.569,370.577 498.202,591.344 498.835,399.063 499.468,391.942 500.101,327.848 500.734,413.306 501.366,377.699 501.999,527.25 502.632,399.063 503.265,377.699 503.898,413.306 504.531,413.306 505.164,441.792 505.797,256.633 506.43,406.185 507.063,299.362 507.696,391.942 508.329,406.185 508.961,463.157 509.594,413.306 510.227,427.549 510.86,391.942 511.493,477.4 512.126,292.241 512.759,391.942 513.392,370.577 514.025,363.456 514.658,299.362 515.291,370.577 515.924,342.091 516.556,406.185 517.189,406.185 517.822,413.306 518.455,413.306 519.088,406.185 519.721,399.063 520.354,384.82 520.987,413.306 521.62,356.334 522.253,399.063 522.886,391.942 523.519,484.521 524.151,406.185 524.784,384.82 525.417,463.157 526.05,427.549 526.683,427.549 527.316,413.306 527.949,384.82 528.582,334.97 529.215,413.306 529.848,313.605 530.481,413.306 531.113,413.306 531.746,384.82 532.379,370.577 533.012,413.306 533.645,477.4 534.278,384.82 534.911,285.119 535.544,377.699 536.177,320.727 536.81,391.942 537.443,370.577 538.076,413.306 538.708,391.942 539.341,363.456 539.974,413.306 540.607,384.82 541.24,377.699 541.873,484.521 542.506,363.456 543.139,391.942 543.772,228.147 544.405,448.914 545.038,406.185 545.671,413.306 546.303,235.269 546.936,313.605 547.569,413.306 548.202,406.185 548.835,356.334 549.468,413.306 550.101,391.942 550.734,377.699 551.367,320.727 552,391.942 552.633,441.792 553.266,413.306 553.898,356.334 554.531,363.456 555.164,356.334 555.797,413.306 556.43,391.942 557.063,406.185 557.696,406.185 558.329,399.063 558.962,434.671 559.595,413.306 560.228,377.699 560.861,448.914 561.493,320.727 562.126,413.306 562.759,320.727 563.392,413.306 564.025,441.792 564.658,349.213 565.291,505.886 565.924,399.063 566.557,342.091 567.19,434.671 567.823,413.306 568.456,399.063 569.088,413.306 569.721,377.699 570.354,399.063 570.987,334.97 571.62,406.185 572.253,406.185 572.886,391.942 573.519,399.063 574.152,391.942 574.785,206.783 575.418,406.185 576.051,413.306 576.683,413.306 577.316,505.886 577.949,384.82 578.582,156.932 579.215,370.577 579.848,391.942 580.481,377.699 581.114,413.306 581.747,399.063 582.38,441.792 583.013,413.306 583.646,562.858 584.278,320.727 584.911,377.699 585.544,413.306 586.177,349.213 586.81,463.157 587.443,470.278 588.076,377.699 588.709,406.185 589.342,221.026 589.975,370.577 590.608,320.727 591.241,327.848 591.873,391.942 592.506,256.633 593.139,413.306 593.772,406.185 594.405,349.213 595.038,391.942 595.671,406.185 596.304,406.185 596.937,441.792 597.57,477.4 598.203,370.577 598.835,406.185 599.468,242.39 600.101,399.063 600.734,299.362 601.367,427.549 602,285.119 602.633,334.97 603.266,342.091 603.899,413.306 604.532,427.549 605.165,413.306 605.798,448.914 606.43,413.306 607.063,391.942 607.696,413.306 608.329,413.306 608.962,434.671 609.595,406.185 610.228,413.306 610.861,406.185 611.494,377.699 612.127,263.755 612.76,406.185 613.393,406.185 614.025,477.4 614.658,270.876 615.291,256.633 615.924,384.82 616.557,399.063 617.19,427.549 617.823,413.306 618.456,399.063 619.089,399.063 619.722,399.063 620.355,356.334 620.988,292.241 621.62,384.82 622.253,448.914 622.886,413.306 623.519,406.185 624.152,313.605 624.785,399.063 625.418,527.25 626.051,413.306 626.684,456.035 627.317,391.942 627.95,356.334 628.583,413.306 629.215,356.334 629.848,427.549 630.481,327.848 631.114,413.306 631.747,363.456 632.38,235.269 633.013,370.577 633.646,356.334 634.279,107.082 634.912,391.942 635.545,164.054 636.178,441.792 636.81,356.334 637.443,427.549 638.076,413.306 638.709,363.456 639.342,406.185 639.975,413.306 640.608,470.278 641.241,562.858 641.874,477.4 642.507,413.306 643.14,406.185 643.773,406.185 644.405,413.306 645.038,384.82 645.671,399.063 646.304,399.063 646.937,406.185 647.57,427.549 648.203,285.119 648.836,399.063 649.469,363.456 650.102,555.736 650.735,320.727 651.368,363.456 652,406.185 652.633,334.97 653.266,327.848 653.899,399.063 654.532,114.203 655.165,391.942 655.798,406.185 656.431,391.942 657.064,413.306 657.697,320.727 658.33,427.549 658.963,406.185 659.595,413.306 660.228,427.549 660.861,413.306 661.494,391.942 662.127,434.671 662.76,171.175 663.393,384.82 664.026,313.605 664.659,399.063 665.292,413.306 665.925,370.577 666.558,477.4 667.19,548.615 667.823,413.306 668.456,356.334 669.089,413.306 669.722,391.942 670.355,406.185 670.988,406.185 671.621,363.456 672.254,413.306 672.887,399.063 673.52,413.306 674.152,456.035 674.785,427.549 675.418,391.942 676.051,406.185 676.684,413.306 677.317,448.914 677.95,448.914 678.583,342.091 679.216,520.129 679.849,377.699 680.482,384.82 681.115,413.306 681.747,413.306 682.38,256.633 683.013,413.306 683.646,441.792 684.279,413.306 684.912,406.185 685.545,320.727 686.178,349.213 686.811,406.185 687.444,399.063 688.077,363.456 688.71,384.82 689.342,448.914 689.975,406.185 690.608,270.876 691.241,406.185 691.874,399.063 692.507,285.119 693.14,413.306 693.773,406.185 694.406,413.306 695.039,413.306 695.672,413.306 696.305,228.147 696.937,427.549 697.57,399.063 698.203,399.063 698.836,370.577 699.469,399.063 700.102,413.306 700.735,434.671 701.368,406.185 702.001,349.213 702.634,313.605 703.267,363.456 703.9,406.185 704.532,206.783 705.165,399.063 705.798,391.942 706.431,413.306 707.064,370.577 707.697,413.306 708.33,384.82 708.963,413.306 709.596,391.942 710.229,491.643 710.862,299.362 711.495,349.213 712.127,406.185 712.76,448.914 713.393,349.213 714.026,391.942 714.659,413.306 715.292,470.278 715.925,235.269 716.558,228.147 717.191,434.671 717.824,413.306 718.457,456.035 719.09,299.362 719.722,520.129 720.355,399.063 720.988,456.035 721.621,384.82 722.254,285.119 722.887,370.577 723.52,413.306 724.153,463.157 724.786,399.063 725.419,456.035 726.052,391.942 726.685,384.82 727.317,399.063 727.95,413.306 728.583,413.306 729.216,406.185 729.849,391.942 730.482,427.549 731.115,277.998 731.748,363.456 732.381,406.185 733.014,356.334 733.647,391.942 734.28,313.605 734.912,391.942 735.545,413.306 736.178,363.456 736.811,399.063 737.444,292.241 738.077,406.185 738.71,406.185 739.343,334.97 739.976,413.306 740.609,413.306 741.242,413.306 741.874,413.306 742.507,391.942 743.14,484.521 743.773,413.306 744.406,178.297 745.039,399.063 745.672,413.306 746.305,270.876 746.938,413.306 747.571,399.063 748.204,306.484 748.837,434.671 749.469,384.82 750.102,370.577 750.735,413.306 751.368,377.699 752.001,434.671 752.634,235.269 753.267,406.185 753.9,406.185 754.533,399.063 755.166,391.942 755.799,513.007 756.432,406.185 757.064,391.942 757.697,413.306 758.33,413.306 758.963,391.942 759.596,406.185 760.229,356.334 760.862,406.185 761.495,413.306 762.128,349.213 762.761,356.334 763.394,391.942 764.027,235.269 764.659,413.306 765.292,406.185 765.925,413.306 766.558,192.54 767.191,377.699 767.824,306.484 768.457,434.671 769.09,413.306 769.723,413.306 770.356,413.306 770.989,391.942 771.622,413.306 772.254,391.942 772.887,313.605 773.52,249.512 774.153,399.063 774.786,399.063 775.419,406.185 776.052,391.942 776.685,370.577 777.318,413.306 777.951,356.334 778.584,384.82 779.217,391.942 779.849,391.942 780.482,413.306 781.115,413.306 781.748,377.699 782.381,413.306 783.014,406.185 783.647,413.306 784.28,413.306 784.913,299.362 785.546,363.456 786.179,349.213 786.812,413.306 787.444,391.942 788.077,406.185 788.71,356.334 789.343,356.334 789.976,178.297 790.609,370.577 791.242,391.942 791.875,413.306 792.508,413.306 793.141,363.456 793.774,391.942 794.407,391.942 795.039,370.577 795.672,413.306 796.305,427.549 796.938,363.456 797.571,349.213 798.204,413.306 798.837,406.185 799.47,413.306 800.103,406.185 800.736,406.185 801.369,342.091 802.002,384.82 802.634,406.185 803.267,235.269 803.9,235.269 804.533,399.063 805.166,406.185 805.799,384.82 806.432,349.213 807.065,413.306 807.698,356.334 808.331,427.549 808.964,406.185 809.597,534.372 810.229,263.755 810.862,477.4 811.495,399.063 812.128,384.82 812.761,413.306 813.394,413.306 814.027,377.699 814.66,477.4 815.293,406.185 815.926,349.213 816.559,399.063 817.191,199.661 817.824,399.063 818.457,555.736 819.09,406.185 819.723,384.82 820.356,406.185 820.989,263.755 821.622,427.549 822.255,399.063 822.888,228.147 823.521,441.792 824.154,413.306 824.786,370.577 825.419,391.942 826.052,391.942 826.685,406.185 827.318,391.942 827.951,399.063 828.584,406.185 829.217,391.942 829.85,413.306 830.483,520.129 831.116,406.185 831.749,342.091 832.381,569.979 833.014,391.942 833.647,384.82 834.28,406.185 834.913,413.306 835.546,413.306 836.179,399.063 836.812,399.063 837.445,427.549 838.078,370.577 838.711,470.278 839.344,384.82 839.976,377.699 840.609,413.306 841.242,363.456 841.875,377.699 842.508,399.063 843.141,406.185 843.774,377.699 844.407,470.278 845.04,505.886 845.673,413.306 846.306,406.185 846.939,384.82 847.571,498.764 848.204,434.671 848.837,413.306 849.47,413.306 850.103,413.306 850.736,434.671 851.369,384.82 852.002,370.577 852.635,391.942 853.268,427.549 853.901,391.942 854.534,413.306 855.166,192.54 855.799,349.213 856.432,377.699 857.065,406.185 857.698,199.661 858.331,384.82 858.964,427.549 859.597,413.306 860.23,370.577 860.863,399.063 861.496,413.306 862.129,441.792 862.761,427.549 863.394,406.185 864.027,391.942 864.66,441.792 865.293,413.306 865.926,391.942 866.559,406.185 867.192,391.942 867.825,384.82 868.458,299.362 869.091,427.549 869.724,406.185 870.356,384.82 870.989,356.334 871.622,391.942 872.255,370.577 872.888,363.456 873.521,399.063 874.154,391.942 874.787,406.185 875.42,448.914 876.053,299.362 876.686,342.091 877.319,327.848 877.951,277.998 878.584,413.306 879.217,356.334 879.85,370.577 880.483,370.577 881.116,406.185 881.749,406.185 882.382,270.876 883.015,384.82 883.648,370.577 884.281,399.063 884.913,327.848 885.546,413.306 886.179,399.063 886.812,413.306 887.445,427.549 888.078,384.82 888.711,427.549 889.344,391.942 889.977,356.334 890.61,413.306 891.243,349.213 891.876,441.792 892.508,427.549 893.141,427.549 893.774,363.456 894.407,356.334 895.04,406.185 895.673,370.577 896.306,491.643 896.939,406.185 897.572,256.633 898.205,306.484 898.838,363.456 899.471,434.671 900.103,413.306 900.736,384.82 901.369,399.063 902.002,441.792 902.635,413.306 903.268,256.633 903.901,463.157 904.534,406.185 905.167,406.185 905.8,391.942 906.433,413.306 907.066,413.306 907.698,391.942 908.331,406.185 908.964,384.82 909.597,399.063 910.23,406.185 910.863,391.942 911.496,470.278 912.129,413.306 912.762,456.035 913.395,306.484 914.028,413.306 914.661,406.185 915.293,356.334 915.926,370.577 916.559,327.848 917.192,413.306 917.825,356.334 918.458,377.699 919.091,406.185 919.724,384.82 920.357,399.063 920.99,384.82 921.623,249.512 922.256,413.306 922.888,349.213 923.521,448.914 924.154,342.091 924.787,356.334 925.42,356.334 926.053,406.185 926.686,370.577 927.319,413.306 927.952,356.334 928.585,356.334 929.218,406.185 929.851,399.063 930.483,399.063 931.116,427.549 931.749,406.185 932.382,221.026 933.015,377.699 933.648,456.035 934.281,427.549 934.914,356.334 935.547,448.914 936.18,406.185 936.813,377.699 937.446,377.699 938.078,263.755 938.711,527.25 939.344,413.306 939.977,199.661 940.61,363.456 941.243,384.82 941.876,427.549 942.509,413.306 943.142,391.942 943.775,399.063 944.408,434.671 945.041,413.306 945.673,384.82 946.306,413.306 946.939,434.671 947.572,249.512 948.205,349.213 948.838,171.175 949.471,413.306 950.104,377.699 950.737,327.848 951.37,377.699 952.003,384.82 952.636,406.185 953.268,456.035 953.901,399.063 954.534,313.605 955.167,356.334 955.8,406.185 956.433,320.727 957.066,413.306 957.699,406.185 958.332,413.306 958.965,413.306 959.598,406.185 960.23,384.82 960.863,327.848 961.496,285.119 962.129,406.185 962.762,399.063 963.395,413.306 964.028,534.372 964.661,349.213 965.294,313.605 965.927,413.306 966.56,399.063 967.193,413.306 967.825,541.493 968.458,384.82 969.091,413.306 969.724,406.185 970.357,384.82 970.99,413.306 971.623,377.699 972.256,235.269 972.889,334.97 973.522,406.185 974.155,413.306 974.788,399.063 975.42,299.362 976.053,306.484 976.686,377.699 977.319,149.811 977.952,463.157 978.585,399.063 979.218,413.306 979.851,306.484 980.484,406.185 981.117,413.306 981.75,235.269 982.383,427.549 983.015,399.063 983.648,377.699 984.281,413.306 984.914,406.185 985.547,270.876 986.18,584.222 986.813,384.82 987.446,498.764 988.079,413.306 988.712,384.82 989.345,406.185 989.978,399.063 990.61,413.306 991.243,434.671 991.876,349.213 992.509,320.727 993.142,406.185 993.775,413.306 994.408,434.671 995.041,463.157 995.674,399.063 996.307,413.306 996.94,406.185 997.573,406.185 998.205,413.306 998.838,399.063 999.471,413.306 1000.1,434.671 1000.74,413.306 1001.37,406.185 1002,356.334 1002.64,334.97 1003.27,413.306 1003.9,313.605 1004.53,413.306 1005.17,456.035 1005.8,349.213 1006.43,334.97 1007.07,356.334 1007.7,277.998 1008.33,413.306 1008.97,356.334 1009.6,334.97 1010.23,342.091 1010.86,406.185 1011.5,413.306 1012.13,399.063 1012.76,406.185 1013.4,406.185 1014.03,320.727 1014.66,598.465 1015.29,391.942 1015.93,334.97 1016.56,413.306 1017.19,413.306 1017.83,327.848 1018.46,413.306 1019.09,413.306 1019.72,384.82 1020.36,320.727 1020.99,520.129 1021.62,427.549 1022.26,427.549 1022.89,391.942 1023.52,363.456 1024.16,384.82 1024.79,377.699 1025.42,406.185 1026.05,406.185 1026.69,327.848 1027.32,370.577 1027.95,377.699 1028.59,427.549 1029.22,256.633 1029.85,399.063 1030.48,370.577 1031.12,413.306 1031.75,555.736 1032.38,456.035 1033.02,427.549 1033.65,391.942 1034.28,413.306 1034.91,413.306 1035.55,270.876 1036.18,356.334 1036.81,377.699 1037.45,263.755 1038.08,427.549 1038.71,413.306 1039.34,413.306 1039.98,363.456 1040.61,342.091 1041.24,427.549 1041.88,342.091 1042.51,427.549 1043.14,406.185 1043.78,384.82 1044.41,441.792 1045.04,413.306 1045.67,413.306 1046.31,399.063 1046.94,363.456 1047.57,313.605 1048.21,384.82 1048.84,349.213 1049.47,334.97 1050.1,391.942 1050.74,413.306 1051.37,228.147 1052,221.026 1052.64,213.904 1053.27,406.185 1053.9,413.306 1054.53,427.549 1055.17,413.306 1055.8,413.306 1056.43,221.026 1057.07,413.306 1057.7,406.185 1058.33,263.755 1058.97,441.792 1059.6,313.605 1060.23,327.848 1060.86,327.848 1061.5,413.306 1062.13,334.97 1062.76,178.297 1063.4,413.306 1064.03,391.942 1064.66,505.886 1065.29,349.213 1065.93,391.942 1066.56,413.306 1067.19,384.82 1067.83,413.306 1068.46,399.063 1069.09,370.577 1069.72,171.175 1070.36,406.185 1070.99,299.362 1071.62,399.063 1072.26,399.063 1072.89,399.063 1073.52,399.063 1074.16,406.185 1074.79,413.306 1075.42,413.306 1076.05,427.549 1076.69,413.306 1077.32,399.063 1077.95,406.185 1078.59,406.185 1079.22,249.512 1079.85,313.605 1080.48,363.456 1081.12,413.306 1081.75,448.914 1082.38,306.484 1083.02,299.362 1083.65,434.671 1084.28,377.699 1084.91,441.792 1085.55,605.587 1086.18,391.942 1086.81,349.213 1087.45,399.063 1088.08,413.306 1088.71,413.306 1089.35,356.334 1089.98,299.362 1090.61,448.914 1091.24,399.063 1091.88,399.063 1092.51,399.063 1093.14,413.306 1093.78,413.306 1094.41,377.699 1095.04,363.456 1095.67,434.671 1096.31,377.699 1096.94,285.119 1097.57,456.035 1098.21,406.185 1098.84,377.699 1099.47,413.306 1100.1,434.671 1100.74,121.325 1101.37,413.306 1102,363.456 1102.64,370.577 1103.27,399.063 1103.9,349.213 1104.54,342.091 1105.17,377.699 1105.8,399.063 1106.43,399.063 1107.07,413.306 1107.7,384.82 1108.33,441.792 1108.97,342.091 1109.6,434.671 1110.23,399.063 1110.86,185.418 1111.5,349.213 1112.13,399.063 1112.76,427.549 1113.4,413.306 1114.03,470.278 1114.66,228.147 1115.29,391.942 1115.93,277.998 1116.56,299.362 1117.19,413.306 1117.83,406.185 1118.46,370.577 1119.09,491.643 1119.73,434.671 1120.36,313.605 1120.99,370.577 1121.62,413.306 1122.26,327.848 1122.89,413.306 1123.52,434.671 1124.16,448.914 1124.79,356.334 1125.42,221.026 1126.05,470.278 1126.69,370.577 1127.32,413.306 1127.95,370.577 1128.59,320.727 1129.22,434.671 1129.85,406.185 1130.48,406.185 1131.12,391.942 1131.75,356.334 1132.38,484.521 1133.02,441.792 1133.65,434.671 1134.28,391.942 1134.92,406.185 1135.55,406.185 1136.18,299.362 1136.81,406.185 1137.45,427.549 1138.08,441.792 1138.71,384.82 1139.35,413.306 1139.98,399.063 1140.61,391.942 1141.24,299.362 1141.88,406.185 1142.51,399.063 1143.14,406.185 1143.78,199.661 1144.41,413.306 1145.04,391.942 1145.67,384.82 1146.31,384.82 1146.94,263.755 1147.57,384.82 1148.21,441.792 1148.84,548.615 1149.47,413.306 1150.11,413.306 1150.74,263.755 1151.37,384.82 1152,434.671 1152.64,306.484 1153.27,456.035 1153.9,399.063 1154.54,356.334 1155.17,441.792 1155.8,406.185 1156.43,406.185 1157.07,356.334 1157.7,520.129 1158.33,477.4 1158.97,263.755 1159.6,413.306 1160.23,384.82 1160.86,413.306 1161.5,413.306 1162.13,413.306 1162.76,228.147 1163.4,413.306 1164.03,377.699 1164.66,413.306 1165.3,270.876 1165.93,363.456 1166.56,370.577 1167.19,327.848 1167.83,406.185 1168.46,413.306 1169.09,434.671 1169.73,363.456 1170.36,406.185 1170.99,413.306 1171.62,391.942 1172.26,399.063 1172.89,441.792 1173.52,399.063 1174.16,399.063 1174.79,349.213 1175.42,406.185 1176.05,349.213 1176.69,256.633 1177.32,427.549 1177.95,427.549 1178.59,413.306 1179.22,413.306 1179.85,456.035 1180.49,399.063 1181.12,391.942 1181.75,427.549 1182.38,413.306 1183.02,634.073 1183.65,299.362 1184.28,356.334 1184.92,349.213 1185.55,413.306 1186.18,370.577 1186.81,384.82 1187.45,406.185 1188.08,391.942 1188.71,242.39 1189.35,299.362 1189.98,399.063 1190.61,292.241 1191.24,484.521 1191.88,320.727 1192.51,399.063 1193.14,434.671 1193.78,406.185 1194.41,342.091 1195.04,448.914 1195.68,399.063 1196.31,413.306 1196.94,427.549 1197.57,406.185 1198.21,413.306 1198.84,406.185 1199.47,256.633 1200.11,498.764 1200.74,270.876 1201.37,334.97 1202,406.185 1202.64,406.185 1203.27,413.306 1203.9,384.82 1204.54,299.362 1205.17,349.213 1205.8,498.764 1206.43,370.577 1207.07,484.521 1207.7,413.306 1208.33,441.792 1208.97,270.876 1209.6,349.213 1210.23,463.157 1210.87,406.185 1211.5,277.998 1212.13,384.82 1212.76,285.119 1213.4,391.942 1214.03,370.577 1214.66,577.101 1215.3,413.306 1215.93,406.185 1216.56,384.82 1217.19,306.484 1217.83,334.97 1218.46,164.054 1219.09,356.334 1219.73,342.091 1220.36,384.82 1220.99,363.456 1221.62,342.091 1222.26,384.82 1222.89,406.185 1223.52,370.577 1224.16,299.362 1224.79,427.549 1225.42,406.185 1226.06,434.671 1226.69,399.063 1227.32,356.334 1227.95,399.063 1228.59,377.699 1229.22,356.334 1229.85,470.278 1230.49,377.699 1231.12,406.185 1231.75,292.241 1232.38,413.306 1233.02,413.306 1233.65,406.185 1234.28,441.792 1234.92,413.306 1235.55,363.456 1236.18,427.549 1236.81,399.063 1237.45,413.306 1238.08,363.456 1238.71,327.848 1239.35,399.063 1239.98,413.306 1240.61,413.306 1241.25,384.82 1241.88,391.942 1242.51,448.914 1243.14,399.063 1243.78,427.549 1244.41,413.306 1245.04,413.306 1245.68,413.306 1246.31,285.119 1246.94,185.418 1247.57,484.521 1248.21,356.334 1248.84,534.372 1249.47,456.035 1250.11,313.605 1250.74,391.942 1251.37,413.306 1252,342.091 1252.64,413.306 1253.27,256.633 1253.9,334.97 1254.54,413.306 1255.17,370.577 1255.8,406.185 1256.44,413.306 1257.07,406.185 1257.7,199.661 1258.33,356.334 1258.97,413.306 1259.6,413.306 1260.23,384.82 1260.87,242.39 1261.5,406.185 1262.13,413.306 1262.76,406.185 1263.4,413.306 1264.03,399.063 1264.66,470.278 1265.3,349.213 1265.93,363.456 1266.56,448.914 1267.19,342.091 1267.83,327.848 1268.46,391.942 1269.09,406.185 1269.73,320.727 1270.36,413.306 1270.99,413.306 1271.63,406.185 1272.26,441.792 1272.89,448.914 1273.52,413.306 1274.16,505.886 1274.79,370.577 1275.42,391.942 1276.06,384.82 1276.69,413.306 1277.32,334.97 1277.95,270.876 1278.59,406.185 1279.22,370.577 1279.85,256.633 1280.49,391.942 1281.12,413.306 1281.75,377.699 1282.38,434.671 1283.02,427.549 1283.65,491.643 1284.28,427.549 1284.92,413.306 1285.55,413.306 1286.18,406.185 1286.82,391.942 1287.45,470.278 1288.08,406.185 1288.71,413.306 1289.35,391.942 1289.98,399.063 1290.61,349.213 1291.25,427.549 1291.88,377.699 1292.51,406.185 1293.14,427.549 1293.78,342.091 1294.41,413.306 1295.04,399.063 1295.68,434.671 1296.31,505.886 1296.94,413.306 1297.57,342.091 1298.21,370.577 1298.84,356.334 1299.47,406.185 1300.11,313.605 1300.74,413.306 1301.37,448.914 1302.01,391.942 1302.64,448.914 1303.27,413.306 1303.9,413.306 1304.54,406.185 1305.17,349.213 1305.8,249.512 1306.44,513.007 1307.07,391.942 1307.7,263.755 1308.33,413.306 1308.97,299.362 1309.6,399.063 1310.23,406.185 1310.87,498.764 1311.5,313.605 1312.13,370.577 1312.76,199.661 1313.4,327.848 1314.03,527.25 1314.66,505.886 1315.3,413.306 1315.93,206.783 1316.56,356.334 1317.2,413.306 1317.83,434.671 1318.46,413.306 1319.09,584.222 1319.73,292.241 1320.36,413.306 1320.99,399.063 1321.63,470.278 1322.26,413.306 1322.89,413.306 1323.52,363.456 1324.16,277.998 1324.79,391.942 1325.42,377.699 1326.06,413.306 1326.69,242.39 1327.32,320.727 1327.95,299.362 1328.59,342.091 1329.22,406.185 1329.85,413.306 1330.49,370.577 1331.12,477.4 1331.75,370.577 1332.39,249.512 1333.02,427.549 1333.65,413.306 1334.28,384.82 1334.92,413.306 1335.55,384.82 1336.18,406.185 1336.82,413.306 1337.45,399.063 1338.08,477.4 1338.71,306.484 1339.35,391.942 1339.98,292.241 1340.61,577.101 1341.25,327.848 1341.88,363.456 1342.51,377.699 1343.14,413.306 1343.78,413.306 1344.41,370.577 1345.04,491.643 1345.68,413.306 1346.31,370.577 1346.94,391.942 1347.58,370.577 1348.21,434.671 1348.84,285.119 1349.47,406.185 1350.11,277.998 1350.74,413.306 1351.37,299.362 1352.01,413.306 1352.64,413.306 1353.27,427.549 1353.9,413.306 1354.54,377.699 1355.17,327.848 1355.8,406.185 1356.44,406.185 1357.07,413.306 1357.7,427.549 1358.33,363.456 1358.97,413.306 1359.6,413.306 1360.23,399.063 1360.87,413.306 1361.5,427.549 1362.13,413.306 1362.77,413.306 1363.4,356.334 1364.03,413.306 1364.66,363.456 1365.3,463.157 1365.93,399.063 1366.56,413.306 1367.2,349.213 1367.83,413.306 1368.46,349.213 1369.09,349.213 1369.73,349.213 1370.36,363.456 1370.99,399.063 1371.63,292.241 1372.26,413.306 1372.89,391.942 1373.52,513.007 1374.16,413.306 1374.79,413.306 1375.42,406.185 1376.06,363.456 1376.69,434.671 1377.32,377.699 1377.96,399.063 1378.59,406.185 1379.22,299.362 1379.85,406.185 1380.49,413.306 1381.12,434.671 1381.75,406.185 1382.39,463.157 1383.02,434.671 1383.65,342.091 1384.28,456.035 1384.92,406.185 1385.55,427.549 1386.18,221.026 1386.82,270.876 1387.45,391.942 1388.08,342.091 1388.71,320.727 1389.35,413.306 1389.98,313.605 1390.61,313.605 1391.25,427.549 1391.88,306.484 1392.51,406.185 1393.14,413.306 1393.78,313.605 1394.41,384.82 1395.04,413.306 1395.68,441.792 1396.31,377.699 1396.94,413.306 1397.58,334.97 1398.21,434.671 1398.84,427.549 1399.47,342.091 1400.11,285.119 1400.74,277.998 1401.37,249.512 1402.01,406.185 1402.64,391.942 1403.27,505.886 1403.9,413.306 1404.54,484.521 1405.17,413.306 1405.8,334.97 1406.44,413.306 1407.07,299.362 1407.7,270.876 1408.33,406.185 1408.97,164.054 1409.6,121.325 1410.23,363.456 1410.87,299.362 1411.5,399.063 1412.13,327.848 1412.77,399.063 1413.4,399.063 1414.03,263.755 1414.66,399.063 1415.3,377.699 1415.93,399.063 1416.56,477.4 1417.2,399.063 1417.83,342.091 1418.46,370.577 1419.09,399.063 1419.73,384.82 1420.36,327.848 1420.99,470.278 1421.63,399.063 1422.26,406.185 1422.89,406.185 1423.52,477.4 1424.16,406.185 1424.79,413.306 1425.42,320.727 1426.06,427.549 1426.69,477.4 1427.32,413.306 1427.96,413.306 1428.59,413.306 1429.22,513.007 1429.85,406.185 1430.49,413.306 1431.12,406.185 1431.75,413.306 1432.39,413.306 1433.02,619.83 1433.65,477.4 1434.28,399.063 1434.92,285.119 1435.55,277.998 1436.18,363.456 1436.82,413.306 1437.45,406.185 1438.08,577.101 1438.71,363.456 1439.35,406.185 1439.98,263.755 1440.61,441.792 1441.25,413.306 1441.88,413.306 1442.51,384.82 1443.15,399.063 1443.78,356.334 1444.41,413.306 1445.04,213.904 1445.68,327.848 1446.31,356.334 1446.94,406.185 1447.58,313.605 1448.21,470.278" id="path50" style="fill:none;stroke:#B40000;stroke-width:1;stroke-linecap:butt;stroke-linejoin:miter" />
</g>
</svg>
