<?xml version="1.0" standalone="no"?>
<!-- Created using GSL Shell -->
<svg
   xmlns="http://www.w3.org/2000/svg"
   version="1.1"
   width="1500"
   height="1500"
   font-family="Helvetica">
<g id="plot1">
   <text x="750" y="810" id="text0" style="font-size:44;text-anchor:middle"> <tspan id="tspan0">Submarine depth changes (angled)</tspan></text>
   <text x="453.699" y="1434.6" id="text1" style="font-size:33;text-anchor:middle"> <tspan id="tspan1">200</tspan></text>
   <text x="702.437" y="1434.6" id="text2" style="font-size:33;text-anchor:middle"> <tspan id="tspan2">400</tspan></text>
   <text x="951.175" y="1434.6" id="text3" style="font-size:33;text-anchor:middle"> <tspan id="tspan3">600</tspan></text>
   <text x="1199.91" y="1434.6" id="text4" style="font-size:33;text-anchor:middle"> <tspan id="tspan4">800</tspan></text>
   <text x="1448.65" y="1434.6" id="text5" style="font-size:33;text-anchor:middle"> <tspan id="tspan5">1000</tspan></text>
   <text x="181.356" y="1403.8" id="text6" style="font-size:33;text-anchor:end"> <tspan id="tspan6">0</tspan></text>
   <text x="181.356" y="1334.8" id="text7" style="font-size:33;text-anchor:end"> <tspan id="tspan7">1000</tspan></text>
   <text x="181.356" y="1265.8" id="text8" style="font-size:33;text-anchor:end"> <tspan id="tspan8">2000</tspan></text>
   <text x="181.356" y="1196.8" id="text9" style="font-size:33;text-anchor:end"> <tspan id="tspan9">3000</tspan></text>
   <text x="181.356" y="1127.8" id="text10" style="font-size:33;text-anchor:end"> <tspan id="tspan10">4000</tspan></text>
   <text x="181.356" y="1058.8" id="text11" style="font-size:33;text-anchor:end"> <tspan id="tspan11">5000</tspan></text>
   <text x="181.356" y="989.8" id="text12" style="font-size:33;text-anchor:end"> <tspan id="tspan12">6000</tspan></text>
   <text x="181.356" y="920.8" id="text13" style="font-size:33;text-anchor:end"> <tspan id="tspan13">7000</tspan></text>
   <path d="M 453.699,1384.07 453.699,842.839 M 702.437,1384.07 702.437,842.839 M 951.175,1384.07 951.175,842.839 M 1199.91,1384.07 1199.91,842.839 M 206.205,1315.11 1448.65,1315.11 M 206.205,1246.14 1448.65,1246.14 M 206.205,1177.18 1448.65,1177.18 M 206.205,1108.21 1448.65,1108.21 M 206.205,1039.25 1448.65,1039.25 M 206.205,970.285 1448.65,970.285 M 206.205,901.321 1448.65,901.321" id="path14" style="fill:none;stroke:#000000;stroke-width:0.225;stroke-linecap:butt;stroke-linejoin:miter;stroke-dasharray:7,3" />
   <path d="M 453.699,1384.07 453.699,1389.48 M 702.437,1384.07 702.437,1389.48 M 951.175,1384.07 951.175,1389.48 M 1199.91,1384.07 1199.91,1389.48 M 1448.65,1384.07 1448.65,1389.48" id="path15" style="fill:none;stroke:#000000;stroke-width:1.125;stroke-linecap:butt;stroke-linejoin:miter" />
   <path d="M 206.205,1384.07 193.78,1384.07 M 206.205,1315.11 193.78,1315.11 M 206.205,1246.14 193.78,1246.14 M 206.205,1177.18 193.78,1177.18 M 206.205,1108.21 193.78,1108.21 M 206.205,1039.25 193.78,1039.25 M 206.205,970.285 193.78,970.285 M 206.205,901.321 193.78,901.321" id="path16" style="fill:none;stroke:#000000;stroke-width:1.125;stroke-linecap:butt;stroke-linejoin:miter" />
   <path d="M 206.205,1384.07 206.205,842.839 1448.65,842.839 1448.65,1384.07 z" id="path17" style="fill:none;stroke:#000000;stroke-width:1.125;stroke-linecap:butt;stroke-linejoin:miter" />
   <text x="827.428" y="1485" id="text18" style="font-size:35;text-anchor:middle"> <tspan id="tspan18">Horizontal position</tspan></text>
   <g transform="matrix(6.12323e-017,-1,1,6.12323e-017,26.5,1113)"><text x="0" y="42" id="text19" style="font-size:35;text-anchor:middle"> <tspan id="tspan19">Depth change</tspan></text></g>
   <path d="M 206.205,1384.07 207.448,1384.07 208.692,1384.07 209.936,1384.07 211.18,1382.21 212.423,1384.07 213.667,1384.07 214.911,1384.07 216.154,1384.07 217.398,1384.07 218.642,1384.07 219.885,1384.07 221.129,1384.07 222.373,1368.35 223.616,1368.35 224.86,1378.83 226.104,1378.83 227.348,1365.73 228.591,1368.35 229.835,1384.07 231.079,1384.07 232.322,1375.8 233.566,1377.45 234.81,1384.07 236.053,1369.59 237.297,1384.07 238.541,1372 239.784,1384.07 241.028,1384.07 242.272,1384.07 243.516,1368.07 244.759,1384.07 246.003,1355.11 247.247,1384.07 248.49,1373.31 249.734,1384.07 250.978,1380.35 252.221,1384.07 253.465,1373.52 254.709,1384.07 255.952,1384.07 257.196,1384.07 258.44,1384.07 259.683,1384.07 260.927,1384.07 262.171,1353.04 263.415,1373.73 264.658,1384.07 265.902,1364.07 267.146,1384.07 268.389,1384.07 269.633,1356.14 270.877,1384.07 272.12,1365.04 273.364,1384.07 274.608,1357.04 275.851,1384.07 277.095,1374.35 278.339,1384.07 279.583,1384.07 280.826,1378 282.07,1362.83 283.314,1374.97 284.557,1384.07 285.801,1384.07 287.045,1384.07 288.288,1366.28 289.532,1384.07 290.776,1384.07 292.019,1384.07 293.263,1384.07 294.507,1384.07 295.75,1356.56 296.994,1384.07 298.238,1377.31 299.482,1384.07 300.725,1372.9 301.969,1384.07 303.213,1384.07 304.456,1384.07 305.7,1384.07 306.944,1367.8 308.187,1367.8 309.431,1380 310.675,1384.07 311.918,1384.07 313.162,1355.11 314.406,1346.83 315.65,1384.07 316.893,1384.07 318.137,1384.07 319.381,1384.07 320.624,1379.59 321.868,1370.62 323.112,1361.66 324.355,1384.07 325.599,1355.11 326.843,1384.07 328.086,1384.07 329.33,1367.31 330.574,1356.14 331.817,1344.97 333.061,1350.56 334.305,1384.07 335.549,1384.07 336.792,1384.07 338.036,1384.07 339.28,1384.07 340.523,1384.07 341.767,1360.28 343.011,1384.07 344.254,1384.07 345.498,1384.07 346.742,1300.9 347.985,1365.59 349.229,1384.07 350.473,1296.56 351.717,1296.56 352.96,1384.07 354.204,1355.11 355.448,1384.07 356.691,1338.9 357.935,1320.83 359.179,1384.07 360.422,1365.04 361.666,1384.07 362.91,1384.07 364.153,1384.07 365.397,1384.07 366.641,1384.07 367.884,1384.07 369.128,1325.73 370.372,1325.73 371.616,1384.07 372.859,1384.07 374.103,1347.38 375.347,1319.87 376.59,1374.9 377.834,1384.07 379.078,1384.07 380.321,1384.07 381.565,1384.07 382.809,1384.07 384.052,1347.38 385.296,1319.87 386.54,1384.07 387.784,1384.07 389.027,1307.38 390.271,1384.07 391.515,1384.07 392.758,1384.07 394.002,1384.07 395.246,1384.07 396.489,1384.07 397.733,1384.07 398.977,1384.07 400.22,1384.07 401.464,1384.07 402.708,1384.07 403.952,1384.07 405.195,1294.07 406.439,1384.07 407.683,1384.07 408.926,1352.83 410.17,1352.83 411.414,1384.07 412.657,1384.07 413.901,1354.28 415.145,1384.07 416.388,1373.73 417.632,1290.97 418.876,1353.04 420.119,1384.07 421.363,1384.07 422.607,1384.07 423.851,1384.07 425.094,1384.07 426.338,1361.73 427.582,1384.07 428.825,1384.07 430.069,1384.07 431.313,1384.07 432.556,1384.07 433.8,1320.35 435.044,1384.07 436.287,1339.11 437.531,1305.38 438.775,1384.07 440.019,1352.21 441.262,1362.83 442.506,1384.07 443.75,1384.07 444.993,1384.07 446.237,1384.07 447.481,1384.07 448.724,1384.07 449.968,1384.07 451.212,1324.76 452.455,1384.07 453.699,1384.07 454.943,1384.07 456.186,1384.07 457.43,1264.28 458.674,1384.07 459.918,1342.9 461.161,1384.07 462.405,1384.07 463.649,1357.04 464.892,1302.97 466.136,1384.07 467.38,1384.07 468.623,1384.07 469.867,1384.07 471.111,1384.07 472.354,1384.07 473.598,1384.07 474.842,1384.07 476.086,1256.07 477.329,1384.07 478.573,1384.07 479.817,1384.07 481.06,1384.07 482.304,1384.07 483.548,1384.07 484.791,1215.25 486.035,1271.52 487.279,1384.07 488.522,1287.18 489.766,1384.07 491.01,1384.07 492.253,1384.07 493.497,1384.07 494.741,1384.07 495.985,1362.56 497.228,1384.07 498.472,1196.01 499.716,1384.07 500.959,1298.56 502.203,1384.07 503.447,1191.04 504.69,1384.07 505.934,1384.07 507.178,1277.52 508.421,1384.07 509.665,1384.07 510.909,1194.76 512.153,1257.87 513.396,1320.97 514.64,1215.8 515.884,1384.07 517.127,1384.07 518.371,1384.07 519.615,1384.07 520.858,1384.07 522.102,1384.07 523.346,1247.94 524.589,1225.25 525.833,1384.07 527.077,1337.59 528.321,1337.59 529.564,1174.9 530.808,1244.63 532.052,1174.9 533.295,1384.07 534.539,1384.07 535.783,1339.52 537.026,1384.07 538.27,1185.45 539.514,1362 540.757,1384.07 542.001,1205.32 543.245,1384.07 544.488,1270.97 545.732,1225.73 546.976,1384.07 548.22,1271.66 549.463,1384.07 550.707,1315.8 551.951,1384.07 553.194,1176.14 554.438,1384.07 555.682,1200.9 556.925,1384.07 558.169,1384.07 559.413,1384.07 560.656,1335.11 561.9,1384.07 563.144,1384.07 564.388,1384.07 565.631,1384.07 566.875,1384.07 568.119,1384.07 569.362,1384.07 570.606,1334.83 571.85,1236.35 573.093,1384.07 574.337,1384.07 575.581,1384.07 576.824,1384.07 578.068,1384.07 579.312,1384.07 580.555,1384.07 581.799,1288.63 583.043,1384.07 584.287,1384.07 585.53,1384.07 586.774,1384.07 588.018,1384.07 589.261,1220.9 590.505,1384.07 591.749,1168.7 592.992,1264.42 594.236,1312.28 595.48,1384.07 596.723,1384.07 597.967,1384.07 599.211,1384.07 600.455,1384.07 601.698,1384.07 602.942,1384.07 604.186,1384.07 605.429,1217.52 606.673,1193.73 607.917,1384.07 609.16,1262.01 610.404,1286.42 611.648,1384.07 612.891,1186.01 614.135,1260.28 615.379,1384.07 616.622,1384.07 617.866,1358.9 619.11,1333.73 620.354,1384.07 621.597,1384.07 622.841,1384.07 624.085,1258.21 625.328,1258.21 626.572,1233.04 627.816,1384.07 629.059,1308.97 630.303,1384.07 631.547,1384.07 632.79,1384.07 634.034,1384.07 635.278,1384.07 636.522,1252.7 637.765,1384.07 639.009,1384.07 640.253,1358 641.496,1384.07 642.74,1205.45 643.984,1358.56 645.227,1154.42 646.471,1384.07 647.715,1384.07 648.958,1384.07 650.202,1384.07 651.446,1161.25 652.689,1309.8 653.933,1260.28 655.177,1384.07 656.421,1384.07 657.664,1384.07 658.908,1311.25 660.152,1384.07 661.395,1384.07 662.639,1384.07 663.883,1234.28 665.126,1384.07 666.37,1384.07 667.614,1158.77 668.857,1384.07 670.101,1384.07 671.345,1384.07 672.589,1155.04 673.832,1384.07 675.076,1309.18 676.32,1159.39 677.563,1359.11 678.807,1359.11 680.051,1384.07 681.294,1358.49 682.538,1384.07 683.782,1384.07 685.025,1281.45 686.269,1384.07 687.513,1281.18 688.757,1152.56 690,1384.07 691.244,1384.07 692.488,1384.07 693.731,1384.07 694.975,1384.07 696.219,1384.07 697.462,1250.63 698.706,1384.07 699.95,1384.07 701.193,1176.08 702.437,1384.07 703.681,1384.07 704.924,1306.49 706.168,1203.04 707.412,1384.07 708.656,1384.07 709.899,1384.07 711.143,1204.49 712.387,1384.07 713.63,1384.07 714.874,1178.28 716.118,1384.07 717.361,1384.07 718.605,1384.07 719.849,1384.07 721.092,1384.07 722.336,1181.04 723.58,1384.07 724.824,1384.07 726.067,1331.52 727.311,1384.07 728.555,1384.07 729.798,1143.87 731.042,1250.63 732.286,1384.07 733.529,1148.83 734.773,1279.52 736.017,1148.83 737.26,1201.11 738.504,1384.07 739.748,1384.07 740.991,1384.07 742.235,1384.07 743.479,1384.07 744.723,1384.07 745.966,1247.87 747.21,1275.11 748.454,1384.07 749.697,1384.07 750.941,1384.07 752.185,1384.07 753.428,1185.66 754.672,1270.69 755.916,1384.07 757.159,1384.07 758.403,1384.07 759.647,1326.42 760.891,1384.07 762.134,1384.07 763.378,1384.07 764.622,1384.07 765.865,1384.07 767.109,1384.07 768.353,1384.07 769.596,1234.76 770.84,1145.18 772.084,1115.32 773.327,1384.07 774.571,1202.83 775.815,1384.07 777.058,1384.07 778.302,1133.04 779.546,1384.07 780.79,1384.07 782.033,1384.07 783.277,1384.07 784.521,1119.66 785.764,1354.69 787.008,1384.07 788.252,1384.07 789.495,1384.07 790.739,1354 791.983,1384.07 793.226,1144.08 794.47,1204.08 795.714,1384.07 796.958,1353.8 798.201,1384.07 799.445,1138.01 800.689,1291.8 801.932,1384.07 803.176,1384.07 804.42,1384.07 805.663,1322.14 806.907,1291.18 808.151,1384.07 809.394,1384.07 810.638,1322.28 811.882,1384.07 813.126,1163.94 814.369,1384.07 815.613,1384.07 816.857,1321.31 818.1,1384.07 819.344,1384.07 820.588,1384.07 821.831,1260.49 823.075,1384.07 824.319,1384.07 825.562,1134.7 826.806,1384.07 828.05,1384.07 829.293,1384.07 830.537,1384.07 831.781,1318.14 833.025,1384.07 834.268,1384.07 835.512,1287.45 836.756,1287.45 837.999,1384.07 839.243,1384.07 840.487,1129.73 841.73,1384.07 842.974,1223.39 844.218,1159.11 845.461,1384.07 846.705,1384.07 847.949,1384.07 849.193,1384.07 850.436,1384.07 851.68,1384.07 852.924,1083.66 854.167,1283.94 855.411,1384.07 856.655,1384.07 857.898,1384.07 859.142,1350.35 860.386,1215.45 861.629,1384.07 862.873,1384.07 864.117,1318.97 865.36,1384.07 866.604,1384.07 867.848,1384.07 869.092,1221.66 870.335,1351.59 871.579,1124.21 872.823,1384.07 874.066,1253.32 875.31,1384.07 876.554,1384.07 877.797,1123.11 879.041,1090.49 880.285,1286.21 881.528,1384.07 882.772,1384.07 884.016,1384.07 885.26,1384.07 886.503,1088.63 887.747,1384.07 888.991,1384.07 890.234,1283.73 891.478,1317.18 892.722,1384.07 893.965,1384.07 895.209,1177.59 896.453,1384.07 897.696,1384.07 898.94,1384.07 900.184,1317.31 901.427,1250.56 902.671,1250.56 903.915,1150.42 905.159,1384.07 906.402,1384.07 907.646,1384.07 908.89,1116.49 910.133,1250.28 911.377,1384.07 912.621,1384.07 913.864,1178.42 915.108,1246.97 916.352,1178.42 917.595,1384.07 918.839,1280.63 920.083,1384.07 921.327,1384.07 922.57,1278.97 923.814,1314 925.058,1138.83 926.301,1384.07 927.545,1384.07 928.789,1384.07 930.032,1384.07 931.276,1275.66 932.52,1203.39 933.763,1275.66 935.007,1384.07 936.251,1311.66 937.494,1384.07 938.738,1384.07 939.982,1313.18 941.226,1384.07 942.469,1276.9 943.713,1384.07 944.957,1384.07 946.2,1095.53 947.444,1384.07 948.688,1384.07 949.931,1384.07 951.175,1384.07 952.419,1275.45 953.662,1166.83 954.906,1384.07 956.15,1347.66 957.394,1384.07 958.637,1310.28 959.881,1347.18 961.125,1162.7 962.368,1199.59 963.612,1273.38 964.856,1384.07 966.099,1384.07 967.343,1346.35 968.587,1384.07 969.83,1384.07 971.074,1384.07 972.318,1048.28 973.562,1384.07 974.805,1199.59 976.049,1125.8 977.293,1384.07 978.536,1197.87 979.78,1384.07 981.024,1234.83 982.267,1197.52 983.511,1384.07 984.755,1198.21 985.998,1384.07 987.242,1384.07 988.486,1310.97 989.729,1384.07 990.973,1384.07 992.217,1235.11 993.461,1384.07 994.704,1384.07 995.948,1308.9 997.192,1384.07 998.435,1384.07 999.679,1309.87 1000.92,1384.07 1002.17,1346.56 1003.41,1234.01 1004.65,1384.07 1005.9,1118.56 1007.14,1384.07 1008.38,1119.52 1009.63,1157.32 1010.87,1384.07 1012.12,1082.84 1013.36,1233.45 1014.6,1045.18 1015.85,1384.07 1017.09,1384.07 1018.33,1269.25 1019.58,1307.52 1020.82,1384.07 1022.07,1384.07 1023.31,1229.04 1024.55,1384.07 1025.8,1305.45 1027.04,1069.59 1028.28,1384.07 1029.53,1384.07 1030.77,1227.11 1032.01,1305.59 1033.26,1384.07 1034.5,1384.07 1035.75,1384.07 1036.99,1384.07 1038.23,1268.63 1039.48,1384.07 1040.72,1042.7 1041.96,1384.07 1043.21,1384.07 1044.45,1384.07 1045.7,1384.07 1046.94,1345.8 1048.18,1384.07 1049.43,1384.07 1050.67,1122.42 1051.91,1384.07 1053.16,1384.07 1054.4,1309.18 1055.65,1384.07 1056.89,1384.07 1058.13,1384.07 1059.38,1161.87 1060.62,1310 1061.86,1384.07 1063.11,1384.07 1064.35,1346.21 1065.59,1384.07 1066.84,1384.07 1068.08,1384.07 1069.33,1384.07 1070.57,1384.07 1071.81,1384.07 1073.06,1384.07 1074.3,1191.32 1075.54,1384.07 1076.79,1190.63 1078.03,1384.07 1079.28,1384.07 1080.52,1384.07 1081.76,1307.8 1083.01,1269.66 1084.25,1155.25 1085.49,1269.66 1086.74,1384.07 1087.98,1384.07 1089.22,1078.97 1090.47,1345.94 1091.71,1117.11 1092.96,1384.07 1094.2,1042.08 1095.44,1384.07 1096.69,1193.73 1097.93,1384.07 1099.17,1271.73 1100.42,1121.94 1101.66,1084.49 1102.91,1384.07 1104.15,1384.07 1105.39,1196.14 1106.64,1384.07 1107.88,1157.73 1109.12,1270.9 1110.37,1384.07 1111.61,1384.07 1112.85,1308.07 1114.1,1384.07 1115.34,1384.07 1116.59,1231.25 1117.83,1384.07 1119.07,1384.07 1120.32,1384.07 1121.56,1266.97 1122.8,1071.8 1124.05,1384.07 1125.29,1384.07 1126.54,1344.76 1127.78,1384.07 1129.02,1032.15 1130.27,1110.35 1131.51,1344.97 1132.75,1384.07 1134,1265.52 1135.24,1384.07 1136.48,1384.07 1137.73,1183.39 1138.97,1263.66 1140.22,1384.07 1141.46,1185.45 1142.7,1225.18 1143.95,1264.9 1145.19,1026.56 1146.43,1066.28 1147.68,1384.07 1148.92,1384.07 1150.17,1102.15 1151.41,1142.42 1152.65,1384.07 1153.9,1384.07 1155.14,1384.07 1156.38,1384.07 1157.63,1058.01 1158.87,1384.07 1160.12,1384.07 1161.36,1260.97 1162.6,1302 1163.85,1384.07 1165.09,1384.07 1166.33,1384.07 1167.58,1384.07 1168.82,1008.56 1170.06,1384.07 1171.31,1007.32 1172.55,1049.18 1173.8,1384.07 1175.04,1384.07 1176.28,1090.56 1177.53,1384.07 1178.77,1384.07 1180.01,1384.07 1181.26,1384.07 1182.5,1384.07 1183.75,1343.52 1184.99,1181.32 1186.23,1384.07 1187.48,1054.7 1188.72,1384.07 1189.96,1384.07 1191.21,1384.07 1192.45,1089.11 1193.69,1384.07 1194.94,1384.07 1196.18,1384.07 1197.43,1299.66 1198.67,1384.07 1199.91,1002.35 1201.16,1299.25 1202.4,1384.07 1203.64,1384.07 1204.89,1168.56 1206.13,1384.07 1207.38,1384.07 1208.62,1384.07 1209.86,1384.07 1211.11,1384.07 1212.35,1384.07 1213.59,1384.07 1214.84,1384.07 1216.08,1122.15 1217.32,1384.07 1218.57,1384.07 1219.81,1384.07 1221.06,1032.63 1222.3,1384.07 1223.54,1384.07 1224.79,1384.07 1226.03,1384.07 1227.27,1384.07 1228.52,1079.46 1229.76,1210.01 1231.01,1384.07 1232.25,1384.07 1233.49,1251.25 1234.74,1384.07 1235.98,1250.42 1237.22,1384.07 1238.47,1204.21 1239.71,1069.32 1240.95,979.389 1242.2,1384.07 1243.44,1339.59 1244.69,1384.07 1245.93,1384.07 1247.17,1384.07 1248.42,1384.07 1249.66,1384.07 1250.9,1154.77 1252.15,1154.77 1253.39,971.32 1254.64,1200.63 1255.88,1384.07 1257.12,1384.07 1258.37,1384.07 1259.61,1384.07 1260.85,1289.59 1262.1,1195.11 1263.34,1384.07 1264.58,1384.07 1265.83,1384.07 1267.07,1142.35 1268.32,1384.07 1269.56,1384.07 1270.8,1188.21 1272.05,1237.18 1273.29,1335.11 1274.53,1384.07 1275.78,1384.07 1277.02,1384.07 1278.27,1084.49 1279.51,1384.07 1280.75,1384.07 1282,1183.8 1283.24,1384.07 1284.48,1384.07 1285.73,1384.07 1286.97,1384.07 1288.22,1384.07 1289.46,1184.35 1290.7,1034.56 1291.95,934.7 1293.19,1384.07 1294.43,1384.07 1295.68,1384.07 1296.92,1084.9 1298.16,1384.07 1299.41,1384.07 1300.65,1384.07 1301.9,1384.07 1303.14,1143.04 1304.38,1384.07 1305.63,1287.38 1306.87,1384.07 1308.11,1139.94 1309.36,944.631 1310.6,1384.07 1311.85,1384.07 1313.09,1335.25 1314.33,1384.07 1315.58,1384.07 1316.82,1237.8 1318.06,1384.07 1319.31,1187.66 1320.55,1384.07 1321.79,1186.83 1323.04,940.286 1324.28,1236.14 1325.53,1384.07 1326.77,1185.45 1328.01,1384.07 1329.26,1135.11 1330.5,985.733 1331.74,1384.07 1332.99,1384.07 1334.23,1384.07 1335.48,1087.39 1336.72,1384.07 1337.96,1384.07 1339.21,1384.07 1340.45,1384.07 1341.69,1384.07 1342.94,1384.07 1344.18,1082.01 1345.42,1283.38 1346.67,930.976 1347.91,1384.07 1349.16,1384.07 1350.4,1384.07 1351.64,1280.76 1352.89,1384.07 1354.13,1384.07 1355.37,1125.8 1356.62,1384.07 1357.86,1384.07 1359.11,1228.9 1360.35,1384.07 1361.59,1021.53 1362.84,1125.11 1364.08,1073.32 1365.32,1384.07 1366.57,1384.07 1367.81,1384.07 1369.05,1384.07 1370.3,1384.07 1371.54,1223.52 1372.79,1384.07 1374.03,1384.07 1375.27,1220.83 1376.52,894.355 1377.76,1275.25 1379,1166.42 1380.25,1384.07 1381.49,1384.07 1382.74,1384.07 1383.98,953.734 1385.22,1384.07 1386.47,1329.8 1387.71,1166.97 1388.95,1384.07 1390.2,1384.07 1391.44,1384.07 1392.69,1055.94 1393.93,1384.07 1395.17,1384.07 1396.42,1384.07 1397.66,1384.07 1398.9,1384.07 1400.15,1102.35 1401.39,1384.07 1402.63,1384.07 1403.88,1384.07 1405.12,1384.07 1406.37,1384.07 1407.61,1384.07 1408.85,1384.07 1410.1,1384.07 1411.34,1384.07 1412.58,1384.07 1413.83,1384.07 1415.07,862.701 1416.32,1384.07 1417.56,1268.63 1418.8,1384.07 1420.05,1150.97 1421.29,1384.07 1422.53,1208.01 1423.78,1384.07 1425.02,1384.07 1426.26,1384.07 1427.51,1032.77 1428.75,974.216 1430,857.115 1431.24,1384.07 1432.48,972.768 1433.73,1207.8 1434.97,1384.07 1436.21,1384.07 1437.46,1384.07 1438.7,1028.22 1439.95,968.906 1441.19,850.287 1442.43,1146.83 1443.68,1384.07 1444.92,1384.07 1446.16,1384.07 1447.41,1384.07 1448.65,842.839" id="path20" style="fill:none;stroke:#0000B4;stroke-width:1;stroke-linecap:butt;stroke-linejoin:miter" />
</g>
<g id="plot2">
   <text x="750" y="60" id="text21" style="font-size:44;text-anchor:middle"> <tspan id="tspan21">Submarine depth changes (flat)</tspan></text>
   <text x="422.866" y="684.6" id="text22" style="font-size:33;text-anchor:middle"> <tspan id="tspan22">200</tspan></text>
   <text x="679.125" y="684.6" id="text23" style="font-size:33;text-anchor:middle"> <tspan id="tspan23">400</tspan></text>
   <text x="935.383" y="684.6" id="text24" style="font-size:33;text-anchor:middle"> <tspan id="tspan24">600</tspan></text>
   <text x="1191.64" y="684.6" id="text25" style="font-size:33;text-anchor:middle"> <tspan id="tspan25">800</tspan></text>
   <text x="1447.9" y="684.6" id="text26" style="font-size:33;text-anchor:middle"> <tspan id="tspan26">1000</tspan></text>
   <text x="142.289" y="623.8" id="text27" style="font-size:33;text-anchor:end"> <tspan id="tspan27">-8</tspan></text>
   <text x="142.289" y="563.8" id="text28" style="font-size:33;text-anchor:end"> <tspan id="tspan28">-6</tspan></text>
   <text x="142.289" y="503.8" id="text29" style="font-size:33;text-anchor:end"> <tspan id="tspan29">-4</tspan></text>
   <text x="142.289" y="443.8" id="text30" style="font-size:33;text-anchor:end"> <tspan id="tspan30">-2</tspan></text>
   <text x="142.289" y="382.8" id="text31" style="font-size:33;text-anchor:end"> <tspan id="tspan31">0</tspan></text>
   <text x="142.289" y="322.8" id="text32" style="font-size:33;text-anchor:end"> <tspan id="tspan32">2</tspan></text>
   <text x="142.289" y="262.8" id="text33" style="font-size:33;text-anchor:end"> <tspan id="tspan33">4</tspan></text>
   <text x="142.289" y="202.8" id="text34" style="font-size:33;text-anchor:end"> <tspan id="tspan34">6</tspan></text>
   <text x="142.289" y="142.8" id="text35" style="font-size:33;text-anchor:end"> <tspan id="tspan35">8</tspan></text>
   <path d="M 422.866,634.073 422.866,92.839 M 679.125,634.073 679.125,92.839 M 935.383,634.073 935.383,92.839 M 1191.64,634.073 1191.64,92.839 M 167.889,604.004 1447.9,604.004 M 167.889,543.867 1447.9,543.867 M 167.889,483.73 1447.9,483.73 M 167.889,423.593 1447.9,423.593 M 167.889,363.456 1447.9,363.456 M 167.889,303.319 1447.9,303.319 M 167.889,243.182 1447.9,243.182 M 167.889,183.045 1447.9,183.045 M 167.889,122.908 1447.9,122.908" id="path36" style="fill:none;stroke:#000000;stroke-width:0.225;stroke-linecap:butt;stroke-linejoin:miter;stroke-dasharray:7,3" />
   <path d="M 422.866,634.073 422.866,639.485 M 679.125,634.073 679.125,639.485 M 935.383,634.073 935.383,639.485 M 1191.64,634.073 1191.64,639.485 M 1447.9,634.073 1447.9,639.485" id="path37" style="fill:none;stroke:#000000;stroke-width:1.125;stroke-linecap:butt;stroke-linejoin:miter" />
   <path d="M 167.889,604.004 155.089,604.004 M 167.889,543.867 155.089,543.867 M 167.889,483.73 155.089,483.73 M 167.889,423.593 155.089,423.593 M 167.889,363.456 155.089,363.456 M 167.889,303.319 155.089,303.319 M 167.889,243.182 155.089,243.182 M 167.889,183.045 155.089,183.045 M 167.889,122.908 155.089,122.908" id="path38" style="fill:none;stroke:#000000;stroke-width:1.125;stroke-linecap:butt;stroke-linejoin:miter" />
   <path d="M 167.889,634.073 167.889,92.839 1447.9,92.839 1447.9,634.073 z" id="path39" style="fill:none;stroke:#000000;stroke-width:1.125;stroke-linecap:butt;stroke-linejoin:miter" />
   <text x="807.895" y="735" id="text40" style="font-size:35;text-anchor:middle"> <tspan id="tspan40">Horizontal position</tspan></text>
   <g transform="matrix(6.12323e-017,-1,1,6.12323e-017,26.5,363)"><text x="0" y="42" id="text41" style="font-size:35;text-anchor:middle"> <tspan id="tspan41">Depth change</tspan></text></g>
   <path d="M 167.889,363.456 169.171,363.456 170.452,363.456 171.733,273.25 173.014,363.456 174.296,333.387 175.577,152.976 176.858,152.976 178.14,243.182 179.421,303.319 180.702,183.045 181.983,183.045 183.265,303.319 184.546,363.456 185.827,363.456 187.109,363.456 188.39,363.456 189.671,363.456 190.953,363.456 192.234,543.867 193.515,604.004 194.796,363.456 196.078,363.456 197.359,183.045 198.64,363.456 199.922,213.113 201.203,363.456 202.484,122.908 203.765,122.908 205.047,152.976 206.328,363.456 207.609,303.319 208.891,363.456 210.172,604.004 211.453,363.456 212.734,303.319 214.016,363.456 215.297,453.661 216.578,363.456 217.86,393.524 219.141,273.25 220.422,573.936 221.704,423.593 222.985,243.182 224.266,303.319 225.547,363.456 226.829,363.456 228.11,122.908 229.391,363.456 230.673,634.073 231.954,483.73 233.235,363.456 234.516,333.387 235.798,363.456 237.079,273.25 238.36,363.456 239.642,423.593 240.923,363.456 242.204,573.936 243.485,243.182 244.767,363.456 246.048,363.456 247.329,363.456 248.611,333.387 249.892,273.25 251.173,513.798 252.455,363.456 253.736,213.113 255.017,243.182 256.298,122.908 257.58,303.319 258.861,513.798 260.142,363.456 261.424,604.004 262.705,363.456 263.986,213.113 265.267,363.456 266.549,393.524 267.83,513.798 269.111,122.908 270.393,273.25 271.674,363.456 272.955,363.456 274.237,363.456 275.518,604.004 276.799,92.839 278.08,363.456 279.362,363.456 280.643,213.113 281.924,453.661 283.206,92.839 284.487,543.867 285.768,363.456 287.049,363.456 288.331,363.456 289.612,213.113 290.893,363.456 292.175,273.25 293.456,122.908 294.737,363.456 296.018,363.456 297.3,363.456 298.581,363.456 299.862,92.839 301.144,213.113 302.425,183.045 303.706,213.113 304.988,333.387 306.269,122.908 307.55,363.456 308.831,92.839 310.113,213.113 311.394,213.113 312.675,363.456 313.957,363.456 315.238,152.976 316.519,363.456 317.8,363.456 319.082,393.524 320.363,363.456 321.644,634.073 322.926,363.456 324.207,363.456 325.488,152.976 326.769,363.456 328.051,604.004 329.332,543.867 330.613,152.976 331.895,273.25 333.176,213.113 334.457,303.319 335.739,363.456 337.02,363.456 338.301,543.867 339.582,423.593 340.864,363.456 342.145,363.456 343.426,363.456 344.708,243.182 345.989,604.004 347.27,273.25 348.551,393.524 349.833,303.319 351.114,363.456 352.395,363.456 353.677,393.524 354.958,152.976 356.239,363.456 357.52,423.593 358.802,122.908 360.083,483.73 361.364,483.73 362.646,423.593 363.927,122.908 365.208,483.73 366.49,183.045 367.771,604.004 369.052,213.113 370.333,513.798 371.615,122.908 372.896,363.456 374.177,333.387 375.459,213.113 376.74,363.456 378.021,363.456 379.302,634.073 380.584,303.319 381.865,363.456 383.146,183.045 384.428,363.456 385.709,363.456 386.99,363.456 388.271,122.908 389.553,483.73 390.834,333.387 392.115,122.908 393.397,393.524 394.678,363.456 395.959,152.976 397.241,453.661 398.522,604.004 399.803,303.319 401.084,543.867 402.366,363.456 403.647,92.839 404.928,363.456 406.21,363.456 407.491,634.073 408.772,363.456 410.053,363.456 411.335,122.908 412.616,303.319 413.897,213.113 415.179,213.113 416.46,333.387 417.741,573.936 419.022,243.182 420.304,363.456 421.585,92.839 422.866,213.113 424.148,333.387 425.429,183.045 426.71,363.456 427.992,183.045 429.273,363.456 430.554,273.25 431.835,543.867 433.117,363.456 434.398,363.456 435.679,303.319 436.961,92.839 438.242,183.045 439.523,333.387 440.804,152.976 442.086,183.045 443.367,183.045 444.648,393.524 445.93,363.456 447.211,92.839 448.492,183.045 449.773,122.908 451.055,122.908 452.336,183.045 453.617,273.25 454.899,363.456 456.18,363.456 457.461,92.839 458.743,363.456 460.024,183.045 461.305,183.045 462.586,92.839 463.868,152.976 465.149,273.25 466.43,363.456 467.712,634.073 468.993,363.456 470.274,152.976 471.555,363.456 472.837,333.387 474.118,363.456 475.399,634.073 476.681,152.976 477.962,363.456 479.243,273.25 480.524,573.936 481.806,363.456 483.087,363.456 484.368,363.456 485.65,363.456 486.931,243.182 488.212,333.387 489.494,152.976 490.775,152.976 492.056,483.73 493.337,92.839 494.619,363.456 495.9,363.456 497.181,122.908 498.463,363.456 499.744,363.456 501.025,363.456 502.306,363.456 503.588,363.456 504.869,543.867 506.15,604.004 507.432,363.456 508.713,453.661 509.994,363.456 511.275,363.456 512.557,243.182 513.838,363.456 515.119,243.182 516.401,363.456 517.682,363.456 518.963,423.593 520.245,363.456 521.526,243.182 522.807,363.456 524.088,213.113 525.37,363.456 526.651,453.661 527.932,363.456 529.214,152.976 530.495,152.976 531.776,92.839 533.057,363.456 534.339,333.387 535.62,183.045 536.901,604.004 538.183,303.319 539.464,333.387 540.745,453.661 542.026,273.25 543.308,363.456 544.589,363.456 545.87,543.867 547.152,273.25 548.433,634.073 549.714,453.661 550.996,122.908 552.277,543.867 553.558,303.319 554.839,363.456 556.121,393.524 557.402,213.113 558.683,243.182 559.965,634.073 561.246,573.936 562.527,363.456 563.808,92.839 565.09,363.456 566.371,363.456 567.652,363.456 568.934,243.182 570.215,543.867 571.496,573.936 572.777,152.976 574.059,183.045 575.34,634.073 576.621,483.73 577.903,152.976 579.184,363.456 580.465,363.456 581.747,92.839 583.028,363.456 584.309,363.456 585.59,213.113 586.872,363.456 588.153,363.456 589.434,453.661 590.716,92.839 591.997,363.456 593.278,363.456 594.559,453.661 595.841,303.319 597.122,333.387 598.403,363.456 599.685,363.456 600.966,363.456 602.247,423.593 603.528,363.456 604.81,152.976 606.091,183.045 607.372,453.661 608.654,243.182 609.935,243.182 611.216,363.456 612.498,273.25 613.779,543.867 615.06,363.456 616.341,604.004 617.623,363.456 618.904,363.456 620.185,363.456 621.467,303.319 622.748,604.004 624.029,393.524 625.31,483.73 626.592,363.456 627.873,363.456 629.154,363.456 630.436,333.387 631.717,634.073 632.998,333.387 634.279,363.456 635.561,183.045 636.842,122.908 638.123,483.73 639.405,363.456 640.686,573.936 641.967,122.908 643.249,363.456 644.53,423.593 645.811,152.976 647.092,333.387 648.374,363.456 649.655,573.936 650.936,363.456 652.218,363.456 653.499,363.456 654.78,363.456 656.061,92.839 657.343,363.456 658.624,483.73 659.905,213.113 661.187,363.456 662.468,333.387 663.749,363.456 665.031,363.456 666.312,483.73 667.593,273.25 668.874,183.045 670.156,423.593 671.437,183.045 672.718,213.113 674,363.456 675.281,393.524 676.562,634.073 677.843,363.456 679.125,453.661 680.406,333.387 681.687,363.456 682.969,363.456 684.25,543.867 685.531,453.661 686.812,183.045 688.094,363.456 689.375,543.867 690.656,152.976 691.938,363.456 693.219,483.73 694.5,122.908 695.782,634.073 697.063,453.661 698.344,273.25 699.625,363.456 700.907,243.182 702.188,92.839 703.469,363.456 704.751,152.976 706.032,393.524 707.313,363.456 708.594,363.456 709.876,604.004 711.157,363.456 712.438,363.456 713.72,363.456 715.001,363.456 716.282,243.182 717.563,483.73 718.845,152.976 720.126,243.182 721.407,243.182 722.689,333.387 723.97,363.456 725.251,363.456 726.533,333.387 727.814,243.182 729.095,122.908 730.376,273.25 731.658,363.456 732.939,363.456 734.22,333.387 735.502,92.839 736.783,453.661 738.064,363.456 739.345,122.908 740.627,92.839 741.908,303.319 743.189,213.113 744.471,634.073 745.752,92.839 747.033,634.073 748.314,363.456 749.596,363.456 750.877,363.456 752.158,213.113 753.44,363.456 754.721,122.908 756.002,92.839 757.284,363.456 758.565,513.798 759.846,634.073 761.127,573.936 762.409,604.004 763.69,363.456 764.971,363.456 766.253,543.867 767.534,122.908 768.815,122.908 770.096,363.456 771.378,393.524 772.659,363.456 773.94,363.456 775.222,243.182 776.503,363.456 777.784,152.976 779.065,363.456 780.347,363.456 781.628,453.661 782.909,243.182 784.191,303.319 785.472,363.456 786.753,363.456 788.035,483.73 789.316,273.25 790.597,363.456 791.878,122.908 793.16,363.456 794.441,453.661 795.722,303.319 797.004,363.456 798.285,213.113 799.566,543.867 800.847,543.867 802.129,363.456 803.41,483.73 804.691,122.908 805.973,363.456 807.254,92.839 808.535,92.839 809.816,183.045 811.098,303.319 812.379,363.456 813.66,543.867 814.942,513.798 816.223,363.456 817.504,363.456 818.786,634.073 820.067,273.25 821.348,363.456 822.629,213.113 823.911,363.456 825.192,363.456 826.473,273.25 827.755,243.182 829.036,333.387 830.317,122.908 831.598,333.387 832.88,333.387 834.161,363.456 835.442,363.456 836.724,122.908 838.005,183.045 839.286,634.073 840.567,363.456 841.849,363.456 843.13,634.073 844.411,604.004 845.693,363.456 846.974,604.004 848.255,92.839 849.537,423.593 850.818,363.456 852.099,363.456 853.38,363.456 854.662,273.25 855.943,363.456 857.224,213.113 858.506,543.867 859.787,363.456 861.068,363.456 862.349,363.456 863.631,333.387 864.912,273.25 866.193,273.25 867.475,483.73 868.756,363.456 870.037,273.25 871.318,183.045 872.6,363.456 873.881,363.456 875.162,183.045 876.444,122.908 877.725,363.456 879.006,604.004 880.288,453.661 881.569,483.73 882.85,363.456 884.131,363.456 885.413,363.456 886.694,363.456 887.975,183.045 889.257,604.004 890.538,273.25 891.819,363.456 893.1,363.456 894.382,152.976 895.663,213.113 896.944,363.456 898.226,363.456 899.507,363.456 900.788,273.25 902.069,363.456 903.351,333.387 904.632,152.976 905.913,363.456 907.195,363.456 908.476,363.456 909.757,213.113 911.039,483.73 912.32,183.045 913.601,92.839 914.882,363.456 916.164,363.456 917.445,363.456 918.726,333.387 920.008,363.456 921.289,513.798 922.57,543.867 923.851,363.456 925.133,243.182 926.414,363.456 927.695,243.182 928.977,333.387 930.258,363.456 931.539,423.593 932.82,273.25 934.102,183.045 935.383,513.798 936.664,363.456 937.946,363.456 939.227,273.25 940.508,363.456 941.79,152.976 943.071,363.456 944.352,363.456 945.633,363.456 946.915,363.456 948.196,363.456 949.477,243.182 950.759,122.908 952.04,363.456 953.321,423.593 954.602,604.004 955.884,243.182 957.165,363.456 958.446,543.867 959.728,363.456 961.009,363.456 962.29,213.113 963.571,363.456 964.853,333.387 966.134,363.456 967.415,363.456 968.697,423.593 969.978,363.456 971.259,604.004 972.541,393.524 973.822,363.456 975.103,243.182 976.384,183.045 977.666,363.456 978.947,303.319 980.228,273.25 981.51,363.456 982.791,453.661 984.072,483.73 985.353,363.456 986.635,183.045 987.916,363.456 989.197,363.456 990.479,183.045 991.76,363.456 993.041,423.593 994.322,363.456 995.604,363.456 996.885,423.593 998.166,363.456 999.448,363.456 1000.73,363.456 1002.01,333.387 1003.29,122.908 1004.57,363.456 1005.85,363.456 1007.14,122.908 1008.42,393.524 1009.7,363.456 1010.98,122.908 1012.26,363.456 1013.54,363.456 1014.82,423.593 1016.1,333.387 1017.39,363.456 1018.67,363.456 1019.95,483.73 1021.23,423.593 1022.51,273.25 1023.79,604.004 1025.07,363.456 1026.35,604.004 1027.64,363.456 1028.92,393.524 1030.2,513.798 1031.48,213.113 1032.76,183.045 1034.04,363.456 1035.32,513.798 1036.61,604.004 1037.89,363.456 1039.17,213.113 1040.45,483.73 1041.73,363.456 1043.01,483.73 1044.29,483.73 1045.57,303.319 1046.86,363.456 1048.14,363.456 1049.42,152.976 1050.7,213.113 1051.98,363.456 1053.26,303.319 1054.54,213.113 1055.82,152.976 1057.11,604.004 1058.39,122.908 1059.67,513.798 1060.95,333.387 1062.23,363.456 1063.51,303.319 1064.79,363.456 1066.07,333.387 1067.36,573.936 1068.64,423.593 1069.92,363.456 1071.2,363.456 1072.48,363.456 1073.76,363.456 1075.04,122.908 1076.33,604.004 1077.61,363.456 1078.89,363.456 1080.17,363.456 1081.45,423.593 1082.73,363.456 1084.01,333.387 1085.29,363.456 1086.58,634.073 1087.86,363.456 1089.14,363.456 1090.42,363.456 1091.7,393.524 1092.98,273.25 1094.26,363.456 1095.54,303.319 1096.83,363.456 1098.11,363.456 1099.39,92.839 1100.67,513.798 1101.95,363.456 1103.23,243.182 1104.51,393.524 1105.79,363.456 1107.08,483.73 1108.36,122.908 1109.64,122.908 1110.92,363.456 1112.2,363.456 1113.48,152.976 1114.76,453.661 1116.05,363.456 1117.33,453.661 1118.61,363.456 1119.89,363.456 1121.17,363.456 1122.45,183.045 1123.73,363.456 1125.01,333.387 1126.3,122.908 1127.58,363.456 1128.86,363.456 1130.14,543.867 1131.42,363.456 1132.7,363.456 1133.98,363.456 1135.26,363.456 1136.55,363.456 1137.83,183.045 1139.11,303.319 1140.39,363.456 1141.67,363.456 1142.95,543.867 1144.23,183.045 1145.51,243.182 1146.8,273.25 1148.08,363.456 1149.36,92.839 1150.64,513.798 1151.92,363.456 1153.2,363.456 1154.48,213.113 1155.77,483.73 1157.05,183.045 1158.33,273.25 1159.61,363.456 1160.89,303.319 1162.17,363.456 1163.45,363.456 1164.73,393.524 1166.02,303.319 1167.3,363.456 1168.58,513.798 1169.86,543.867 1171.14,122.908 1172.42,634.073 1173.7,604.004 1174.98,363.456 1176.27,363.456 1177.55,92.839 1178.83,363.456 1180.11,122.908 1181.39,393.524 1182.67,152.976 1183.95,363.456 1185.23,453.661 1186.52,273.25 1187.8,333.387 1189.08,363.456 1190.36,273.25 1191.64,363.456 1192.92,363.456 1194.2,122.908 1195.49,303.319 1196.77,363.456 1198.05,92.839 1199.33,333.387 1200.61,213.113 1201.89,183.045 1203.17,483.73 1204.45,453.661 1205.74,333.387 1207.02,573.936 1208.3,363.456 1209.58,273.25 1210.86,183.045 1212.14,513.798 1213.42,363.456 1214.7,604.004 1215.99,333.387 1217.27,303.319 1218.55,604.004 1219.83,152.976 1221.11,363.456 1222.39,363.456 1223.67,122.908 1224.96,273.25 1226.24,363.456 1227.52,243.182 1228.8,363.456 1230.08,183.045 1231.36,363.456 1232.64,363.456 1233.92,363.456 1235.21,573.936 1236.49,363.456 1237.77,152.976 1239.05,122.908 1240.33,122.908 1241.61,543.867 1242.89,273.25 1244.17,363.456 1245.46,363.456 1246.74,363.456 1248.02,363.456 1249.3,243.182 1250.58,122.908 1251.86,152.976 1253.14,333.387 1254.42,363.456 1255.71,363.456 1256.99,273.25 1258.27,183.045 1259.55,152.976 1260.83,363.456 1262.11,122.908 1263.39,333.387 1264.68,363.456 1265.96,363.456 1267.24,363.456 1268.52,183.045 1269.8,152.976 1271.08,333.387 1272.36,363.456 1273.64,243.182 1274.93,423.593 1276.21,363.456 1277.49,303.319 1278.77,513.798 1280.05,303.319 1281.33,183.045 1282.61,573.936 1283.89,363.456 1285.18,363.456 1286.46,363.456 1287.74,513.798 1289.02,92.839 1290.3,513.798 1291.58,363.456 1292.86,303.319 1294.14,604.004 1295.43,634.073 1296.71,634.073 1297.99,363.456 1299.27,303.319 1300.55,363.456 1301.83,152.976 1303.11,363.456 1304.4,363.456 1305.68,604.004 1306.96,122.908 1308.24,363.456 1309.52,303.319 1310.8,453.661 1312.08,363.456 1313.36,213.113 1314.65,363.456 1315.93,273.25 1317.21,363.456 1318.49,363.456 1319.77,363.456 1321.05,213.113 1322.33,363.456 1323.61,303.319 1324.9,363.456 1326.18,363.456 1327.46,543.867 1328.74,423.593 1330.02,273.25 1331.3,363.456 1332.58,213.113 1333.86,243.182 1335.15,243.182 1336.43,243.182 1337.71,423.593 1338.99,423.593 1340.27,363.456 1341.55,363.456 1342.83,363.456 1344.12,303.319 1345.4,92.839 1346.68,122.908 1347.96,363.456 1349.24,273.25 1350.52,453.661 1351.8,363.456 1353.08,243.182 1354.37,453.661 1355.65,363.456 1356.93,333.387 1358.21,363.456 1359.49,363.456 1360.77,363.456 1362.05,122.908 1363.33,213.113 1364.62,213.113 1365.9,92.839 1367.18,423.593 1368.46,363.456 1369.74,243.182 1371.02,92.839 1372.3,363.456 1373.58,363.456 1374.87,363.456 1376.15,363.456 1377.43,543.867 1378.71,183.045 1379.99,634.073 1381.27,363.456 1382.55,152.976 1383.84,363.456 1385.12,363.456 1386.4,393.524 1387.68,423.593 1388.96,92.839 1390.24,363.456 1391.52,183.045 1392.8,333.387 1394.09,243.182 1395.37,152.976 1396.65,183.045 1397.93,363.456 1399.21,393.524 1400.49,573.936 1401.77,303.319 1403.05,122.908 1404.34,303.319 1405.62,152.976 1406.9,273.25 1408.18,634.073 1409.46,152.976 1410.74,213.113 1412.02,183.045 1413.3,363.456 1414.59,453.661 1415.87,363.456 1417.15,122.908 1418.43,363.456 1419.71,183.045 1420.99,363.456 1422.27,453.661 1423.56,213.113 1424.84,483.73 1426.12,363.456 1427.4,363.456 1428.68,363.456 1429.96,273.25 1431.24,363.456 1432.52,363.456 1433.81,243.182 1435.09,483.73 1436.37,122.908 1437.65,363.456 1438.93,363.456 1440.21,363.456 1441.49,363.456 1442.77,273.25 1444.06,513.798 1445.34,152.976 1446.62,152.976 1447.9,363.456" id="path42" style="fill:none;stroke:#B40000;stroke-width:1;stroke-linecap:butt;stroke-linejoin:miter" />
</g>
</svg>
